<?xml version="1.0" encoding="UTF-8" standalone="no"?><!DOCTYPE svg PUBLIC "-//W3C//DTD SVG 1.1//EN" "http://www.w3.org/Graphics/SVG/1.1/DTD/svg11.dtd"><svg width="100%" height="100%" viewBox="0 0 1035 839" version="1.1" xmlns="http://www.w3.org/2000/svg" xml:space="preserve" style="fill-rule:evenodd;clip-rule:evenodd;stroke-linejoin:round;stroke-miterlimit:2;"><g id="Layer_2-2"><path d="M478.75,598.125c12.5,-2.667 25,-6.167 35.875,5.417c-2.666,-0.345 -5.354,-0.484 -8.042,-0.417c-2.534,0.469 -5.018,1.181 -7.416,2.125c-1.417,-8 -7.292,-7.333 -14.084,-5.208c-4.958,1.541 -10.083,2.375 -15.125,3.666c-1.583,0.417 -3.875,1.084 -4.375,2.25c-3.75,8.959 -11.791,7.625 -18.916,8.042c-7.125,0.417 -13.792,0 -19.084,0c-1.708,3.167 -2.375,6.375 -4.166,7.458c-5.084,2.959 -10.75,4.834 -16.042,7.417c-3.993,2.509 -8.172,4.71 -12.5,6.583c-4.344,0.779 -8.755,1.114 -13.167,1c-7,0.542 -13.583,0 -18.958,-8.333l44.125,-11.292c-9.125,-6.458 -22,1.792 -28.292,-7.708l23.917,-12l-2.5,-9.625l19.667,3.625c-8.334,-21.417 -7.959,-42.583 -6.917,-63.792c0,-1.958 0.417,-3.916 0.542,-5.916c0.291,-5.334 2.291,-11.667 -9.375,-10.792c3.375,-2.75 4.5,-3.792 5.708,-4.667c3.083,-2.25 4.833,-4.416 0.417,-7.25c-1.148,-0.784 -1.895,-2.034 -2.042,-3.416c0.458,-8.334 -4.167,-10.084 -12.958,-8.834c5.708,-8.666 7.833,-16.208 -4.417,-19.875c10.708,-18.208 30.667,-15.583 45.583,-22.833c-4.166,-5.542 -6.083,-6.25 -10.708,-3.375c-9.333,5.667 -19.25,1.625 -28.875,1.875c-1,0 -2.792,-2.25 -3,-3.667c-0.797,-4.594 -1.16,-9.254 -1.083,-13.916c2,-43.834 -5,-85.042 -34.625,-119.75c-3.484,-5.184 -7.298,-10.139 -11.417,-14.834c-4.065,-2.605 -8.506,-4.573 -13.167,-5.833l-5.625,-2.458c23.75,-2.5 35.625,12.5 49.292,27.958c-6.583,-26.417 -25.917,-39.75 -43.667,-54.292c-4.791,3 -2.583,13.667 -12.5,13.459l2.292,-21.959c-5.499,-0.194 -10.982,-0.722 -16.417,-1.583c-5.625,-1.208 -5.666,-5.417 -3.583,-9.833c5.125,-10.959 26.667,-16.667 36.542,-9.75c4.594,3.267 6.502,9.211 4.666,14.541c-0.916,4.167 -2.583,7.917 -4.166,12.5c26.24,13.068 50.45,29.868 71.875,49.875l-5.167,1.875c3.625,3.375 6.958,6.875 10.708,9.834c1.93,1.08 4.03,1.827 6.209,2.208c4.541,1.417 5.625,3.708 1.208,7.708l15.292,6.875l1.166,-1.541c-8.75,-10.25 -17.291,-20.834 -26.291,-30.709c-3.661,-3.322 -5.022,-8.518 -3.459,-13.208c2.334,-8 3.292,-16.375 5.375,-27.458c8.334,10.208 22.75,10.541 26.375,22.875c3.292,11.25 4.167,23.166 7.834,35.541c1.203,-2.468 1.938,-5.138 2.166,-7.875c-0.875,-7.583 -2.75,-15.041 -3.708,-22.625c-0,-1.958 1.5,-4.166 2.333,-6.166l2.125,0.416l0,-1.291c-26.458,-19.084 -52.833,-38.334 -79.583,-57c-6.929,-4.291 -14.254,-7.905 -21.875,-10.792c-3.542,-1.542 -5.875,-3.708 -3.875,-7.125c1.763,-3.157 4.434,-5.713 7.667,-7.333c2.907,-0.746 5.994,-0.311 8.583,1.208c9,4.833 17.333,1.958 25.792,-1.25c8.458,-3.208 18,-6.792 26.916,-10.458c1.834,-0.75 3.209,-2.667 5.042,-5.459c-10.458,2.25 -12,-4.458 -13.875,-11.083c-1.167,-4.167 -0,-6.042 4.167,-6.875c3.125,-0.667 6.166,-1.833 9.25,-2.75c7.916,-2.417 9,-7.875 3,-14.167c-1.153,-1.564 -2.001,-3.331 -2.5,-5.208c-0.667,-1.792 -1.167,-3.625 -2.167,-6.708c-4.917,9.833 -11.667,8.708 -20.833,4.625c6.75,-2.792 11.916,-5.042 17.208,-7.125c11.167,-4.375 12.5,-6.875 10.833,-19.625l-17.458,-0c-1.292,-0 -2.458,-1.667 -3.708,-2.584c1.25,-0.916 2.458,-2.583 3.708,-2.583c16.125,-0 22.333,-9.292 22.708,-24.208c0.383,-3.043 1.053,-6.042 2,-8.959l2.042,0.25l-0,24.209l14.708,-3.334c-1.375,6.959 -1.875,13.084 -10.708,13.584c-5.458,0.333 -4.167,5.416 -3.917,8.75c0.378,2.824 1.882,5.38 4.167,7.083c3.999,1.699 8.2,2.875 12.5,3.5c-2.984,3.908 -6.394,7.471 -10.167,10.625c-4.48,2.494 -6.408,8.007 -4.458,12.75c0.75,2.167 5.458,2.75 7.75,4.708c2.251,1.645 3.87,4.014 4.583,6.709c0.092,4.189 -0.243,8.378 -1,12.5l-6.583,2.333l0.375,2.458c6.771,-0.516 13.505,-1.434 20.167,-2.75c13.232,-3.031 26.258,-6.9 39,-11.583c29.166,-11.667 58.333,-9.125 87,0.542c16.125,5.458 31.708,12.5 47.541,18.75c3.167,1.25 6.292,2.625 9.459,4.166c4.541,-11.916 -0.209,-19.958 -11.25,-23.625c-15.597,-4.662 -30.764,-10.657 -45.334,-17.916c-21.393,-11.792 -46.159,-16.008 -70.25,-11.959c-12.125,1.834 -24.125,4.542 -36.208,6.792c-6.25,1.167 -12.5,2.167 -19.583,3.417c0.583,-1.917 0.541,-2.834 0.958,-3.125c29.708,-22 61.167,-40.375 98.583,-45.542c28.862,-4.199 58.307,1.69 83.334,16.667c1.534,0.799 2.829,1.993 3.75,3.458c7.875,16.667 15.041,33.333 15.375,52.167c-0,11.833 -1.667,15.125 -12.084,23.083c10.5,7.833 21.75,15 31.5,23.792c25.834,23.291 39,53.75 42.417,87.5c3.333,33.333 3.417,66.666 4.667,100c-0,5.75 -1.459,9.625 -9.209,10.291c-5.891,1.172 -11.13,4.521 -14.666,9.375c-21.581,29.339 -48.988,53.908 -80.5,72.167c-7.25,4.167 -12.959,11.208 -19.5,16.667c-2.77,2.445 -5.723,4.673 -8.834,6.666c-1.322,1.139 -3.011,1.766 -4.756,1.766c-2.768,-0 -5.307,-1.577 -6.535,-4.057c-2.959,-3.917 -8.334,-6.167 -11.875,-10.542c0.928,2.946 2.084,5.816 3.458,8.583c2.917,4.875 6.625,9.292 9.375,14.25c7.25,13.167 3.458,25.834 -2.583,38.209c-6.635,0.609 -13.303,0.762 -19.959,0.458c-3.041,-0.333 -5.5,-4.167 -8.625,-5.5c-5.041,-1.875 -8.958,-4.458 -15.083,2c-6.125,6.458 -17.417,9.5 -26.875,12.5c-5.917,1.958 -12.5,1.458 -21.208,2.25c6.676,4.021 14.846,4.744 22.125,1.958c9.832,-3.917 19.323,-8.641 28.375,-14.125c4.833,-2.833 8,-3.25 12.5,0.542c3.354,2.41 7.066,4.28 11,5.542c5.416,2.208 11,4.166 17.125,6.416l11.083,-14.708c12.958,5.333 25.458,10.542 38.042,15.542c2.417,0.758 4.995,0.845 7.458,0.25l-18.875,-9.959l0.542,-2.083l31.416,2.792l-2.666,-11.167c5.631,2.146 11.376,3.982 17.208,5.5c11.125,2.167 14.417,-1.125 13.5,-12.5c-0,-1.417 -0,-2.833 -0.25,-4.167c30.208,1.959 62.75,26.459 62.5,47.292c-13.042,4.167 -26.375,2.25 -39.333,-0c-10.459,-1.917 -17.667,0.208 -24.125,9.083c-7.373,9.695 -18.992,15.256 -31.167,14.917c-27.167,0.292 -54.375,-0 -81.5,-1.333c-5.375,-0 -10.458,-5.667 -15.833,-8.334c-2.734,-0.909 -5.349,-2.14 -7.792,-3.666l25.417,-6.375c1.714,-0.225 3.412,-0.559 5.083,-1c1.334,-0.777 2.578,-1.699 3.708,-2.75c-1.458,-0.917 -2.875,-2.417 -4.375,-2.542c-3.166,-0.333 -6.5,0.417 -9.625,-0c-5.708,-0.667 -11.291,-2.167 -17,-2.792c-5.708,-0.625 -11.291,-2.25 -15.625,-0.333c-10.458,4.583 -20.833,3.75 -31.208,2.042c-8.743,-2.203 -18.031,-0.231 -25.125,5.333Zm181.667,-180.375c5.625,2.5 7.666,-0.667 9.708,-4.417c13.792,-25.375 15.958,-52.75 13.167,-80.75c-3.709,-37.5 -17.5,-71.875 -33.709,-105.416c-1.25,-2.625 -5.125,-4.417 -5.5,-6.959c-1,-6.708 -5.791,-8.333 -10.875,-10.625c-2.514,-0.881 -4.804,-2.303 -6.708,-4.166c-9.829,-10.909 -22.681,-18.655 -36.917,-22.25c-30.833,-9.125 -62.5,-9.542 -94.125,-7.917c-12.25,0.667 -24.208,6.542 -36.291,10.083l0.583,2.25l47.875,-10.833l0.458,2.208l-25,8.75l0.5,2.667c14.584,-1.958 28.042,5.625 43.125,3.083c15.084,-2.541 30.459,-2 45.834,-2.833c-10.258,2.75 -20.683,4.838 -31.209,6.25c-1.541,0.25 -4.166,1.125 -4.166,1.75c-0,5.375 -4.5,4.167 -7.375,5.333c-1.584,0.625 -3.25,1.042 -4.917,1.584l0.458,2.5c2.792,-0.292 5.584,-0.5 8.334,-0.834c15.166,-1.75 30.25,-3.833 45.458,-5.166c4.1,0.173 8.155,0.93 12.042,2.25l-0.375,1.5l-43.042,3.166l-0,1.834c8.875,-0 17.792,-0.375 26.625,-0c8.833,0.375 17.208,2 25.833,3.041l-0.25,2.5c-5.666,0.292 -11.291,0.667 -16.958,0.792c-5.667,0.125 -11.167,-0 -16.667,-0l0,2.458c21.667,2.375 43.417,4.417 62.5,16.667c-6.772,-0.82 -13.463,-2.214 -20,-4.167c-12.19,-3.735 -25.191,-3.951 -37.5,-0.625c-1.994,1.002 -3.81,2.325 -5.375,3.917l1.334,1.417l28.25,-4.792c-1.167,9.958 -10.417,6.792 -14.625,11.75c2.875,0.417 5.166,0.958 7.458,1.042c20.419,0.73 40.137,7.68 56.5,19.916c7.375,5.375 7.417,5.334 6.958,15l-23.166,-7.75c3.084,2.966 6.511,5.554 10.208,7.709c14.088,8.982 24.612,22.602 29.75,38.5c7.333,20.416 11.333,40.583 3.667,61.916c-4.875,12 -8.042,24.75 -11.875,37.667Zm-205.792,173.917c3.756,-0.736 7.389,-1.999 10.792,-3.75c5,-3.917 12.25,-6.25 11.375,-15.125c0.202,-4.43 0.689,-8.842 1.458,-13.209c0.044,-2.378 -0.592,-4.72 -1.833,-6.75c-8.334,-12.75 -16.667,-25.416 -25.459,-38.583c-25.416,4.167 -24.75,3.375 -28,28.792c-0.123,0.478 -0.207,0.966 -0.25,1.458c-0.554,11.798 2.08,23.53 7.625,33.958c7.167,-19.75 6.792,-38.5 6.959,-57.416c12.271,21.454 18.277,45.927 17.333,70.625Zm198.042,-132.542c-22.709,2.5 -44.042,22.25 -50,46.792c38.166,-18.584 64.958,-48.25 92.75,-77.042c-2.665,0.106 -5.278,0.774 -7.667,1.958c-7.958,4.167 -15.75,8.334 -23.75,12.167c-6.792,3.375 -14,6.042 -11.333,16.208l-0,-0.083Zm-246.792,-20.833c2.625,-1.167 5.375,-1.5 6,-2.834c2.458,-5.166 14.167,-6.75 6.5,-16.041c-0.625,-0.75 0,-2.792 0.458,-4.167c0.811,-2.518 1.233,-5.146 1.25,-7.792c-3.25,-20.333 -13.708,-37.833 -22.625,-55.875c-0.901,-1.478 -1.933,-2.873 -3.083,-4.166c-0.221,1.294 -0.346,2.603 -0.375,3.916c2.833,25.959 5.667,51.917 8.708,77.834c0.713,3.123 1.776,6.156 3.167,9.041l0,0.084Zm116.667,-2.417c-2.75,9.583 -0.792,16.167 7.083,21.083c5.027,3.562 9.841,7.416 14.417,11.542c9.833,8.042 12.708,7.208 16.666,-5.042l8.334,0c-2.114,-4.202 -4.625,-8.193 -7.5,-11.916c-5.167,-5.5 -10.917,-10.459 -16.667,-15.459c-1.343,-1 -2.994,-1.501 -4.667,-1.416c-6.083,0.125 -11.958,0.666 -17.791,1.125l0.125,0.083Zm39.666,-330l-0.708,-1.792c-21.333,4.5 -42.958,8.334 -59.875,24.459l59.542,-6.417l-0,-1.292l-9.792,-1.833l0,-1.625l9.167,-2.708l-9.584,-2.167l-0.291,-2.042l11.541,-4.583Zm-133.291,89.958l-2.125,-0.416l-5.959,9.416l-4.166,-7.166l-12.5,10.666l26.958,25l3.083,-1.625l-5.291,-35.875Zm64.583,271.292l-1.333,1.792c6.333,13 12.639,25.986 18.916,38.958l2.584,0.583c-5.334,-14.333 8.75,-14.25 14.833,-21.666l-35,-19.667Zm76.375,-18.208l2.083,-0l7.834,-26.042l-33.042,3.292l-0.917,2.458c4.167,5.458 8.042,10.958 12.292,16.292c0.999,0.856 2.386,1.111 3.625,0.666c0.822,-1.062 1.142,-2.433 0.875,-3.75c-0.417,-3.25 -1.167,-6.5 -1.792,-9.708l2.667,-0.625l6.375,17.417Zm18.833,28l2.459,2.916l38.083,-30.625c-21.042,-0.916 -41.083,10.334 -41.667,21.125l10.667,-1.666l0.375,1.625l-9.917,6.625Zm-77.916,-6.084c5.416,3.667 10.5,6.709 15.125,10.25c6.958,5.334 11.208,4.5 16.166,-5.166l-25,-17.959l-6.291,12.875Zm-36,-20l-0,1.125l-17.334,0.959c9.417,4.416 16.667,7.833 23.834,11.125c0.864,0.256 1.797,0.151 2.583,-0.292c0.917,-3.875 3.083,-8.333 2.083,-11.667c-3.416,-11.75 -12.916,-14.125 -23.5,-6.041l12.334,4.791Zm141.666,-9.041l-23.041,-12.5l-4.167,25.458l27.208,-12.958Zm-4.583,34.25c-14.708,2.666 -25,11.208 -33.542,22.208c6.959,8.333 6.834,8.333 13.084,0.375c3.791,-4.833 8.083,-9.292 12.208,-13.833c2.458,-3.042 5.292,-5.875 8.042,-8.792l0.208,0.042Zm-82.417,-182.292l1.75,2.208l40.292,-27.916c-5.083,-2.417 -15.208,-1.5 -18.875,2.083c-4.917,4.833 -10.083,9.458 -15,14.375c-2.875,3 -5.458,6.167 -8.167,9.25Zm-119.25,168.75c0.313,3.326 0.926,6.618 1.834,9.833c0.786,1.737 2.32,3.026 4.166,3.5c3.67,0.36 7.374,0.021 10.917,-1c2.095,-1.057 3.533,-3.089 3.833,-5.416c0,-2.292 -1.833,-6.375 -3.333,-6.584c-5.79,-0.53 -11.611,-0.641 -17.417,-0.333Zm143.292,81.083c-15.375,-3.208 -25.833,-13.291 -36.083,-26.583c2.096,15.325 15.329,26.87 30.796,26.87c1.772,-0 3.541,-0.152 5.287,-0.453l0,0.166Zm-46.458,-253.208c-11.25,-16.208 -27.292,-25.375 -43.542,-34.292l-1.125,1.625l44.667,32.667Zm-57.959,-62.5l2.084,-0.417c-1.5,-8.527 -2.986,-17.069 -4.459,-25.625c-0.291,-1.791 -0.416,-3.625 -0.708,-5.458c-0.292,-1.833 -0.708,-3.708 -1.083,-5.583c-1.25,1.458 -3.334,2.708 -3.667,4.166c-2.417,12.125 3.708,22.167 7.833,32.709l0,0.208Zm94.709,268.958c-8.917,-4.541 -18.292,0.667 -23.167,12.25c10.208,0.584 17.083,-4.333 23.167,-12.458l-0,0.208Zm-103.459,-8.75c-2.708,-6.583 -8.333,-7.875 -16.916,-5.291c-4.917,1.5 -5.334,4.166 -3.125,8.916l20.041,-3.625Zm-15.333,12.834l-0.875,2.583c2.021,2.035 4.24,3.864 6.625,5.458c1.503,0.206 3.024,-0.251 4.167,-1.25c0.416,-5.125 4.166,-4.583 7.458,-4.875c1.506,-0.49 2.915,-1.237 4.167,-2.208l-0.875,-2.792l-20.667,3.084Zm162.5,-250l39.25,6.291c-11.724,-7.223 -25.855,-9.488 -39.25,-6.291Zm123.333,335.916c8.334,2.959 16.25,9.125 27.417,6.125c-8.792,-7.916 -18.167,-6.958 -27.375,-6.125l-0.042,0Zm-238.208,-104.791c-1.292,-5 -9.083,-7.042 -17.75,-3.834c5.026,3.935 11.591,5.35 17.792,3.834l-0.042,-0Zm198.5,-54.5c-11.292,-0 -19.375,4.75 -19.708,11.333l19.708,-11.333Zm-47.208,-156.709c-8.334,-8.041 -12.834,-8.875 -19.917,-2.958l19.917,2.958Zm-164.5,328.334l-0,-2.334c-5.834,0.334 -11.667,0.625 -17.5,1.167c-0.75,-0 -1.375,1.542 -2.042,2.375c0.833,0.667 1.792,2 2.5,1.875c5.625,-0.875 11.333,-2.042 17.042,-3.083Zm93.708,-187.5l3.667,-0.834c-1.542,-5.125 -3.125,-10.291 -4.667,-15.458l-2.792,0.792l3.792,15.5Z" style="fill:#23408f;fill-rule:nonzero;"/><path d="M653.042,64.958c14.125,0 25.708,-0.25 37.5,0c11.791,0.25 11.458,0.584 11.25,11.917c-0,9.958 -2.5,10 10.25,10.458c11.083,0.417 22.083,1.917 33.125,3.042c2.251,0.574 4.452,1.326 6.583,2.25c-2.802,2.304 -5.723,4.46 -8.75,6.458c-16.667,9.709 -26.792,28.375 -24.417,44.917l48.084,-5.875l1.166,1.583c-19.291,23.75 -26.958,52.625 -37.208,80.459c3.625,-23.75 8.667,-47.334 7.875,-71.292c-8.667,1.208 -16.417,2.167 -24.125,3.375c-0.575,0.145 -1.165,0.218 -1.758,0.218c-3.955,-0 -7.208,-3.254 -7.208,-7.209c-0,-0.114 0.002,-0.228 0.008,-0.342c-0.724,-7.566 -0.528,-15.191 0.583,-22.709c1.831,-8.151 4.169,-16.181 7,-24.041c-4.708,-0 -8.75,0.25 -12.792,-0c-11.375,-0.792 -15.125,-4.167 -17.458,-15.417c-2.333,-11.25 -4.167,-12.5 -15.333,-8.333c-1.167,0.416 -2.292,1 -3.459,1.291c-5,1.292 -10.125,5.834 -15.166,0.875c-5.75,-5.666 -10.209,-12.25 -8.125,-21.083c1.458,-6.25 3.208,-12.5 4.625,-18.667c1.416,-6.166 -1.5,-10.25 -8.334,-10.958c-16.315,-1.331 -32.724,0.975 -48.041,6.75c-38.417,13.208 -76.417,27.458 -114.459,41.25c-1.059,0.541 -2.316,0.541 -3.375,0c3.777,-2.592 7.747,-4.891 11.875,-6.875c35.292,-13.458 70.334,-27.667 106.125,-39.667c23.727,-8.42 49.398,-9.766 73.875,-3.875c11.459,2.875 11.792,3.375 8.709,14.5c-1.81,8.564 -6.819,16.122 -14,21.125c-1.417,0.792 -2.167,2.625 -4.625,5.875Z" style="fill:#23408f;fill-rule:nonzero;"/><path d="M323.083,183.875l-43.166,10.333c5.125,-13.625 2.416,-27.875 13.875,-37.5c1.333,-1.125 1.458,-3.583 2.625,-5.041c3.625,-4.625 7.583,-9 11.25,-13.584c3.666,-4.583 6.833,-9.625 10.833,-13.875c4.667,-4.916 10.042,-9.166 15.083,-13.75c2.084,-1.916 4.167,-3.875 6.084,-5.833l-0.625,-2.708l-15.667,-0c-1.833,-0 -4.583,0.208 -5.333,-0.792c-6,-8.333 -10.959,-17.292 -8.334,-28.042c0.584,-2.458 3.834,-4.166 5.834,-6.375c2.58,2.527 4.885,5.32 6.875,8.334c0.916,1.625 -0.334,4.166 -0.25,6.541c-0,2.917 -0,8.334 0.958,8.334c3.625,0.75 7.75,4.916 11.625,-0.209c0.583,-0.791 3.708,0 5.458,0.542c7.625,2.75 15.167,5.708 23.084,8.708c-0.194,8.265 -4.836,15.81 -12.125,19.709c-7.667,4.458 -15.959,7.75 -24,11.416c-8.042,3.667 -15.834,7.042 -20.375,15.209c-0.875,1.541 -3.042,2.375 -4.625,3.5c-3.347,2.336 -5.346,6.169 -5.346,10.25c-0,4.818 2.785,9.224 7.137,11.291c3.89,1.561 7.676,3.37 11.334,5.417c2.873,2.429 5.485,5.152 7.791,8.125Z" style="fill:#23408f;fill-rule:nonzero;"/><path d="M366.167,27.208c8.333,-1.083 11.875,-5.125 9.833,-10.666c-1.936,-3.836 -5.282,-6.779 -9.333,-8.209c-6.224,-1.489 -12.545,-2.534 -18.917,-3.125c-4.766,-0.81 -9.413,-2.21 -13.833,-4.166c12.958,-2.666 26.448,-0.766 38.166,5.375c4.167,2.375 8.334,5.416 12.5,8c3.201,1.537 5.246,4.787 5.246,8.338c-0,1.737 -0.49,3.44 -1.412,4.912c-2.375,4.75 -10.667,5.958 -15.375,3.041c-1.709,-0.875 -3.292,-1.541 -6.875,-3.5Z" style="fill:#23408f;fill-rule:nonzero;"/><path d="M416.208,635.083l0.625,-3.375c0.459,-0.333 0.792,-0.625 0.834,-0.541c9.916,8 6.625,-6 11.125,-6.625c5.666,-0.792 11.375,-1.084 17.083,-1.625c-0.417,2.416 0,6.541 -1.333,7c-8.834,3.416 -17,10.416 -28.334,5.166Z" style="fill:#23408f;fill-rule:nonzero;"/><path d="M359.292,44.167c-4.167,6.791 -9.292,3.625 -14.417,1.958c4.083,-7.333 9.292,-3.875 14.417,-1.958Z" style="fill:#23408f;fill-rule:nonzero;"/><path d="M280.25,216.292l0,-8.334l10.208,-1.083l1.25,2.292l-11.458,7.125Z" style="fill:#23408f;fill-rule:nonzero;"/><path d="M376.667,619l-9.625,2.875l-0.375,-9.75l10,6.875Z" style="fill:#23408f;fill-rule:nonzero;"/><path d="M652.417,257.75l-47.334,-21.375c11.125,-0.667 44.5,13.625 47.334,21.375Z" style="fill:#23408f;fill-rule:nonzero;"/><path d="M609.417,832.792c-1.695,-0.053 -3.258,-0.944 -4.167,-2.375l-31.333,-69.125l-25.375,-0l-0,1.208l6.083,0l5.583,12.5l-21.958,55.125l-11.875,3.083l0,1.042l25,0l0,-1.042l-11.708,-3.041l3.416,-8.667l38.5,0l5.792,12.75l27.75,0l-0,-1.167l-5.708,-0.291Zm-66.042,-12.5l17.583,-44.125l20,44.125l-37.583,-0Z" style="fill:#23408f;fill-rule:nonzero;"/><path d="M722.458,832.792c-1.691,-0.067 -3.247,-0.954 -4.166,-2.375l-31.334,-69.125l-25.291,-0l-0,1.208l6.083,0l5.625,12.5l-22,55.125l-11.917,3.083l0,1.042l25,0l0,-1.042l-11.708,-3.041l3.458,-8.667l38.5,0l5.75,12.75l27.75,0l0,-1.167l-5.75,-0.291Zm-66.083,-12.5l17.583,-44.125l20,44.125l-37.583,-0Z" style="fill:#23408f;fill-rule:nonzero;"/><path d="M202.5,774.25l1.042,0l-0,-12.875l-73.834,0l0,1.125l5.667,0c2.971,0 5.417,2.445 5.417,5.417l-0,59.541c-0,2.972 -2.446,5.417 -5.417,5.417l-5.667,0l0,1.042l73.834,-0l-0,-13.084l-1.042,0l-3.042,11.834l-33.666,-0c-2.972,-0 -5.417,-2.446 -5.417,-5.417l0,-24.417l18.375,0l3.083,11.834l1.042,-0l0,-24.709l-1.042,0l-3.083,11.834l-18.375,-0l0,-34.084c0,-2.971 2.445,-5.416 5.417,-5.416l33.666,-0l3.042,11.958Z" style="fill:#23408f;fill-rule:nonzero;"/><path d="M927.083,774.25l1.084,0l-0,-12.875l-74,0l-0,1.125l5.708,0c2.963,0.023 5.394,2.454 5.417,5.417l-0,59.541c-0.023,2.963 -2.454,5.394 -5.417,5.417l-5.708,0l-0,1.042l73.875,-0l-0,-13.084l-1.084,0l-3.041,11.834l-33.667,-0c-2.963,-0.023 -5.394,-2.454 -5.417,-5.417l0,-24.417l18.375,0l3.084,11.834l1.041,-0l0,-24.709l-1.041,0l-3.084,11.834l-18.375,-0l0,-34.084c0.023,-2.963 2.454,-5.394 5.417,-5.416l33.667,-0l3.166,11.958Z" style="fill:#23408f;fill-rule:nonzero;"/><path d="M407.5,774.25l1.042,0l-0,-12.875l-73.834,0l0,1.125l5.667,0c2.971,0 5.417,2.445 5.417,5.417l-0,59.541c-0,2.972 -2.446,5.417 -5.417,5.417l-5.667,0l0,1.042l73.834,-0l-0,-13.084l-1.042,0l-3.042,11.834l-33.625,-0c-2.971,-0 -5.416,-2.446 -5.416,-5.417l-0,-24.417l18.333,0l3.083,11.834l1.042,-0l-0,-24.709l-1.042,0l-3.083,11.834l-18.375,-0l-0,-34.084c0.112,-2.908 2.548,-5.233 5.458,-5.208l33.667,-0l3,11.75Z" style="fill:#23408f;fill-rule:nonzero;"/><path d="M500.875,820.833l-3.083,11.875l-28.625,0c-2.979,0 -5.436,-2.438 -5.459,-5.416l0,-59.5c0.023,-2.979 2.48,-5.417 5.459,-5.417l4.166,0l0,-1.042l-40.291,0l-0,1.167l5.666,0c2.979,-0 5.436,2.438 5.459,5.417l-0,59.666c-0.023,2.979 -2.48,5.417 -5.459,5.417l-5.666,0l-0,1.042l68.916,-0l0,-13.209l-1.083,0Z" style="fill:#23408f;fill-rule:nonzero;"/><path d="M100,762.5l5.167,0l-0,-1.042l-29.167,0l-0.458,1.042l-1.292,2.875l-20.833,46.292l-22.834,-50.417l-30.583,0l0,1.25l11.875,3.083l0,64.5l-11.875,2.875l0,1.042l24.75,0l0,-1.042l-11.833,-3.083l-0,-63.875l25,55l5.75,12.708l1.166,0l9.334,-20.583l20.833,-46.125c0.04,0.332 0.04,0.668 0,1l0,59.542c-0.023,2.963 -2.454,5.394 -5.417,5.416l-5.583,0l0,1.042l41.25,0l0,-1.042l-5.25,0c-2.979,0 -5.436,-2.438 -5.458,-5.416l-0,-59.542c-0,-0.014 -0,-0.028 -0,-0.042c-0,-2.994 2.463,-5.458 5.458,-5.458Z" style="fill:#23408f;fill-rule:nonzero;"/><path d="M824.625,835.542l0.042,-0l-0.042,-0Z" style="fill:#23408f;fill-rule:nonzero;"/><path d="M797.833,805.75l0,1.042l5,-0c2.85,0.043 5.17,2.399 5.17,5.249c-0,0.056 -0.001,0.112 -0.003,0.167l0,14.709c-0.169,2.534 -1.798,4.75 -4.167,5.666c-1.917,0.585 -3.912,0.88 -5.916,0.875c-14.292,0 -25.834,-14.208 -25.834,-31.75c0,-17.541 11.542,-31.75 25.834,-31.75c6.329,0.069 12.359,2.737 16.666,7.375c2.437,2.793 3.9,6.304 4.167,10l0,9.167l1.042,0l-0,-29.167l-1.042,0l0,6.084c0,3.208 -1.958,4.166 -4.375,2c-6.753,-6.469 -15.752,-10.084 -25.104,-10.084c-19.909,0 -36.291,16.383 -36.291,36.292c-0,19.909 16.382,36.292 36.291,36.292c0.035,-0 0.069,-0 0.104,-0c12.275,0.054 23.738,-6.262 30.25,-16.667l0,-9c0.133,-3.014 2.65,-5.42 5.667,-5.417l5.208,0l0,-1.041l-32.667,-0.042Z" style="fill:#23408f;fill-rule:nonzero;"/><path d="M298.458,829.792l-11.5,-27.417c9.382,-2.204 16.069,-10.644 16.069,-20.281c0,-11 -8.711,-20.201 -19.694,-20.802l-55.333,-0l-0,1.208l5.667,0c2.971,0 5.416,2.445 5.416,5.417l0,59.791c0.015,2.654 -1.923,4.947 -4.541,5.375l-6.542,0l-0,1.042l41.25,-0l0,-1.042l-6.042,0c-2.618,-0.428 -4.556,-2.721 -4.541,-5.375l-0,-25l27.333,0l11.333,27.292l-11.666,3.042l-0,1.041l24.708,0l-0,-1.041l-11.917,-3.25Zm-39.791,-28.084l-0,-33.958c-0,-2.971 2.445,-5.417 5.416,-5.417l19.25,0c10.459,0.482 18.803,9.218 18.803,19.688c-0,10.47 -8.344,19.206 -18.803,19.687l-24.666,0Z" style="fill:#23408f;fill-rule:nonzero;"/><path d="M1023.04,829.792l-11.459,-27.417c9.378,-2.207 16.061,-10.645 16.061,-20.279c0,-11.012 -8.731,-20.22 -19.727,-20.804l-55.334,-0l0,1.208l5.75,0c2.979,-0 5.436,2.438 5.459,5.417l-0,59.791c-0.007,2.661 -1.957,4.949 -4.584,5.375l-6.541,0l-0,1.042l41.291,-0l0,-1.042l-6.083,0c-2.619,-0.428 -4.556,-2.721 -4.542,-5.375l0,-25l27.209,0l11.375,27.292l-11.667,3.042l-0,1.041l24.708,0l0,-1.041l-11.916,-3.25Zm-39.709,-28.084l0,-33.958c0,-2.971 2.446,-5.417 5.417,-5.417l19.125,0c10.459,0.482 18.802,9.218 18.802,19.688c0,10.47 -8.343,19.206 -18.802,19.687l-24.542,0Z" style="fill:#23408f;fill-rule:nonzero;"/><path d="M68.125,721.5l276.875,1.75l0,-3.542l-276.875,1.792Z" style="fill:#23408f;fill-rule:nonzero;"/><path d="M368.083,700.833l3.667,0l0,36.125l18.417,0l-0,3.334l-22.084,-0l0,-39.459Z" style="fill:#23408f;fill-rule:nonzero;"/><path d="M416.417,700.833l3.791,0l16.667,39.459l-4.167,-0l-4.166,-10.459l-20.834,0l-4.458,10.459l-4.083,-0l17.25,-39.459Zm1.708,4.167l-9.208,21.625l18.125,0l-8.917,-21.625Z" style="fill:#23408f;fill-rule:nonzero;"/><path d="M468.708,700c0.139,-0.003 0.278,-0.004 0.417,-0.004c11.429,-0 20.833,9.404 20.833,20.833c0,11.429 -9.404,20.833 -20.833,20.833c-11.427,0 -20.831,-9.401 -20.833,-20.829c-0.021,-0.365 -0.031,-0.73 -0.031,-1.095c0,-10.835 8.916,-19.75 19.75,-19.75c0.233,-0 0.465,0.004 0.697,0.012Zm0,38.125c0.25,0.011 0.5,0.016 0.75,0.016c9.555,0 17.417,-7.862 17.417,-17.417c-0,-9.554 -7.862,-17.416 -17.417,-17.416c-9.554,-0 -17.416,7.862 -17.416,17.416c-0,0.009 -0,0.017 -0,0.026c-0.018,0.307 -0.026,0.614 -0.026,0.922c-0,8.937 7.354,16.291 16.291,16.291c0.134,0 0.268,-0.001 0.401,-0.005l0,0.167Z" style="fill:#23408f;fill-rule:nonzero;"/><path d="M505.708,700.833l3.667,0l0,17.375l0.333,0l19.125,-17.375l5.084,0l-19.959,18.042l21.084,21.417l-5.292,-0l-20.042,-20.375l-0.333,-0l0,20.375l-3.667,-0l0,-39.459Z" style="fill:#23408f;fill-rule:nonzero;"/><path d="M576.167,725.208c-0,8.334 -3.625,16.084 -14.375,16.084c-10.75,-0 -14.375,-7.667 -14.375,-16.084l-0,-24.375l3.666,0l0,23.417c0,5.625 1.5,13.708 10.709,13.708c9.208,0 10.708,-8.083 10.708,-13.708l0,-23.417l3.667,0l-0,24.375Zm-19.709,-34.417l0.083,0c1.486,0 2.709,1.223 2.709,2.709c-0,1.485 -1.223,2.708 -2.709,2.708c-1.485,0 -2.708,-1.223 -2.708,-2.708l-0,-0.084c-0,-1.44 1.185,-2.625 2.625,-2.625Zm10.583,0l0.084,0c1.485,0 2.708,1.223 2.708,2.709c0,1.485 -1.223,2.708 -2.708,2.708c-1.486,0 -2.709,-1.223 -2.709,-2.708l0,-0.084c0,-1.44 1.185,-2.625 2.625,-2.625Z" style="fill:#23408f;fill-rule:nonzero;"/><path d="M594.625,700.833l3.667,0l-0,36.125l18.375,0l-0,3.334l-22.084,-0l0.042,-39.459Z" style="fill:#23408f;fill-rule:nonzero;"/><path d="M642.958,700.833l3.792,0l16.667,39.459l-4.167,-0l-4.167,-10.459l-20.833,0l-4.458,10.459l-3.834,-0l17,-39.459Zm1.75,4.167l-9.208,21.625l18.125,0l-8.917,-21.625Z" style="fill:#23408f;fill-rule:nonzero;"/><path d="M966.583,721.5l-276.916,-1.792l-0,3.542l276.916,-1.75Z" style="fill:#23408f;fill-rule:nonzero;"/></g></svg>