<?xml version="1.0" encoding="UTF-8" standalone="no"?><!DOCTYPE svg PUBLIC "-//W3C//DTD SVG 1.1//EN" "http://www.w3.org/Graphics/SVG/1.1/DTD/svg11.dtd"><svg width="100%" height="100%" viewBox="0 0 359 469" version="1.1" xmlns="http://www.w3.org/2000/svg" xml:space="preserve" style="fill-rule:evenodd;clip-rule:evenodd;stroke-linejoin:round;stroke-miterlimit:2;"><path d="M146.291,440.168c9.197,-1.962 18.394,-4.537 26.395,3.985c-1.961,-0.253 -3.939,-0.356 -5.916,-0.306c-1.865,0.345 -3.693,0.869 -5.457,1.563c-1.043,-5.886 -5.365,-5.395 -10.362,-3.832c-3.648,1.134 -7.419,1.748 -11.128,2.698c-1.165,0.306 -2.851,0.797 -3.219,1.655c-2.759,6.591 -8.676,5.61 -13.918,5.917c-5.242,0.307 -10.147,-0 -14.041,-0c-1.256,2.33 -1.747,4.69 -3.065,5.487c-3.74,2.177 -7.909,3.557 -11.803,5.457c-2.938,1.846 -6.012,3.466 -9.197,4.844c-3.195,0.573 -6.441,0.819 -9.687,0.736c-5.15,0.398 -9.994,-0 -13.949,-6.132l32.465,-8.307c-6.713,-4.752 -16.186,1.318 -20.815,-5.672l17.596,-8.829l-1.839,-7.081l14.47,2.667c-6.131,-15.758 -5.856,-31.331 -5.089,-46.935c-0,-1.441 0.306,-2.882 0.398,-4.353c0.215,-3.924 1.687,-8.584 -6.897,-7.94c2.483,-2.023 3.311,-2.79 4.2,-3.433c2.268,-1.656 3.556,-3.25 0.306,-5.335c-0.844,-0.577 -1.393,-1.497 -1.502,-2.513c0.337,-6.132 -3.066,-7.419 -9.534,-6.5c4.2,-6.376 5.763,-11.925 -3.25,-14.623c7.879,-13.396 22.563,-11.465 33.538,-16.799c-3.065,-4.077 -4.475,-4.599 -7.878,-2.483c-6.867,4.169 -14.163,1.195 -21.245,1.379c-0.736,0 -2.054,-1.655 -2.207,-2.698c-0.587,-3.38 -0.853,-6.808 -0.797,-10.239c1.471,-32.25 -3.679,-62.569 -25.476,-88.106c-2.563,-3.814 -5.369,-7.459 -8.399,-10.913c-2.991,-1.917 -6.258,-3.365 -9.688,-4.292l-4.138,-1.809c17.474,-1.839 26.211,9.197 36.266,20.571c-4.844,-19.436 -19.068,-29.246 -32.128,-39.945c-3.525,2.207 -1.9,10.055 -9.197,9.902l1.686,-16.156c-4.046,-0.143 -8.079,-0.532 -12.078,-1.165c-4.139,-0.889 -4.169,-3.985 -2.637,-7.235c3.771,-8.063 19.62,-12.263 26.886,-7.174c3.38,2.404 4.784,6.778 3.433,10.699c-0.674,3.066 -1.9,5.825 -3.065,9.197c19.306,9.615 37.118,21.975 52.882,36.696l-3.802,1.379c2.667,2.483 5.12,5.059 7.879,7.235c1.42,0.795 2.965,1.345 4.568,1.625c3.341,1.042 4.138,2.728 0.889,5.671l11.251,5.059l0.858,-1.135c-6.438,-7.541 -12.722,-15.328 -19.344,-22.593c-2.694,-2.445 -3.695,-6.267 -2.545,-9.718c1.717,-5.886 2.422,-12.048 3.955,-20.203c6.131,7.511 16.738,7.756 19.405,16.83c2.422,8.278 3.066,17.045 5.764,26.15c0.886,-1.816 1.426,-3.78 1.594,-5.794c-0.644,-5.579 -2.023,-11.067 -2.728,-16.646c-0,-1.441 1.103,-3.066 1.716,-4.537l1.564,0.306l-0,-0.95c-19.467,-14.041 -38.872,-28.204 -58.554,-41.938c-5.097,-3.156 -10.487,-5.815 -16.094,-7.94c-2.606,-1.134 -4.323,-2.728 -2.851,-5.242c1.297,-2.323 3.263,-4.203 5.641,-5.395c2.139,-0.549 4.41,-0.229 6.315,0.889c6.622,3.556 12.753,1.441 18.976,-0.92c6.223,-2.361 13.244,-4.997 19.804,-7.695c1.349,-0.551 2.36,-1.962 3.709,-4.016c-7.694,1.656 -8.829,-3.28 -10.208,-8.154c-0.859,-3.066 -0,-4.445 3.065,-5.058c2.3,-0.491 4.538,-1.349 6.806,-2.024c5.825,-1.778 6.622,-5.794 2.207,-10.423c-0.847,-1.151 -1.471,-2.451 -1.839,-3.832c-0.491,-1.318 -0.858,-2.667 -1.594,-4.936c-3.618,7.235 -8.584,6.408 -15.328,3.403c4.966,-2.054 8.767,-3.709 12.661,-5.242c8.216,-3.219 9.197,-5.058 7.97,-14.439l-12.845,0c-0.95,0 -1.808,-1.226 -2.728,-1.901c0.92,-0.674 1.809,-1.9 2.728,-1.9c11.864,-0 16.432,-6.837 16.708,-17.812c0.282,-2.238 0.775,-4.445 1.472,-6.591l1.502,0.184l-0,17.812l10.821,-2.453c-1.011,5.12 -1.379,9.626 -7.878,9.994c-4.016,0.245 -3.066,3.985 -2.882,6.438c0.278,2.078 1.384,3.958 3.066,5.211c2.942,1.25 6.033,2.116 9.196,2.575c-2.195,2.876 -4.704,5.497 -7.48,7.818c-3.296,1.835 -4.715,5.891 -3.28,9.381c0.552,1.594 4.016,2.023 5.702,3.464c1.656,1.21 2.847,2.953 3.372,4.935c0.068,3.083 -0.179,6.164 -0.735,9.197l-4.844,1.717l0.276,1.809c4.981,-0.38 9.936,-1.056 14.837,-2.024c9.736,-2.23 19.32,-5.076 28.695,-8.522c21.459,-8.584 42.918,-6.714 64.01,0.398c11.864,4.016 23.329,9.197 34.978,13.796c2.33,0.919 4.63,1.931 6.959,3.065c3.342,-8.767 -0.153,-14.684 -8.277,-17.382c-11.475,-3.43 -22.634,-7.841 -33.354,-13.182c-15.74,-8.676 -33.962,-11.777 -51.686,-8.798c-8.921,1.349 -17.75,3.341 -26.64,4.997c-4.599,0.858 -9.197,1.594 -14.409,2.514c0.43,-1.411 0.399,-2.085 0.705,-2.3c21.858,-16.186 45.004,-29.705 72.533,-33.507c21.235,-3.089 42.899,1.244 61.312,12.263c1.129,0.588 2.082,1.466 2.759,2.544c5.794,12.263 11.067,24.525 11.313,38.382c-0,8.706 -1.227,11.128 -8.891,16.983c7.726,5.764 16.003,11.036 23.176,17.505c19.007,17.137 28.694,39.546 31.208,64.378c2.453,24.525 2.514,49.05 3.434,73.575c-0,4.23 -1.073,7.081 -6.775,7.572c-4.335,0.862 -8.189,3.325 -10.791,6.897c-15.878,21.586 -36.042,39.663 -59.228,53.097c-5.334,3.065 -9.534,8.246 -14.347,12.262c-2.038,1.799 -4.21,3.439 -6.499,4.905c-0.973,0.838 -2.216,1.299 -3.5,1.299c-2.037,0 -3.904,-1.16 -4.808,-2.985c-2.177,-2.881 -6.131,-4.537 -8.737,-7.756c0.683,2.168 1.534,4.279 2.544,6.315c2.146,3.587 4.875,6.837 6.898,10.485c5.334,9.687 2.545,19.007 -1.901,28.111c-4.881,0.449 -9.787,0.561 -14.684,0.338c-2.238,-0.246 -4.046,-3.066 -6.346,-4.047c-3.709,-1.379 -6.591,-3.28 -11.097,1.472c-4.507,4.751 -12.815,6.989 -19.773,9.196c-4.354,1.441 -9.197,1.073 -15.604,1.656c4.911,2.958 10.923,3.49 16.278,1.441c7.234,-2.882 14.217,-6.358 20.877,-10.393c3.556,-2.084 5.886,-2.391 9.197,0.399c2.468,1.773 5.199,3.149 8.093,4.077c3.985,1.625 8.093,3.066 12.6,4.721l8.154,-10.822c9.534,3.924 18.731,7.756 27.989,11.435c1.779,0.558 3.676,0.622 5.488,0.184l-13.888,-7.327l0.399,-1.532l23.115,2.054l-1.962,-8.216c4.143,1.578 8.37,2.929 12.661,4.046c8.185,1.594 10.607,-0.827 9.932,-9.197c0,-1.042 0,-2.084 -0.184,-3.065c22.226,1.441 46.169,19.466 45.985,34.795c-9.596,3.065 -19.406,1.655 -28.94,-0c-7.694,-1.411 -12.998,0.153 -17.75,6.683c-5.424,7.133 -13.973,11.224 -22.931,10.975c-19.987,0.214 -40.006,-0 -59.963,-0.981c-3.955,-0 -7.695,-4.17 -11.649,-6.132c-2.011,-0.669 -3.936,-1.574 -5.733,-2.697l18.7,-4.691c1.261,-0.165 2.511,-0.411 3.74,-0.736c0.982,-0.571 1.897,-1.249 2.729,-2.023c-1.073,-0.674 -2.116,-1.778 -3.219,-1.87c-2.33,-0.245 -4.783,0.307 -7.082,0c-4.2,-0.49 -8.308,-1.594 -12.508,-2.054c-4.199,-0.46 -8.307,-1.655 -11.496,-0.245c-7.694,3.372 -15.328,2.759 -22.961,1.502c-6.433,-1.62 -13.266,-0.17 -18.486,3.924Zm133.661,-132.711c4.139,1.84 5.641,-0.49 7.143,-3.249c10.147,-18.67 11.741,-38.811 9.687,-59.412c-2.728,-27.59 -12.875,-52.882 -24.8,-77.56c-0.92,-1.931 -3.771,-3.249 -4.047,-5.12c-0.736,-4.935 -4.261,-6.131 -8.001,-7.817c-1.85,-0.648 -3.535,-1.695 -4.936,-3.065c-7.231,-8.026 -16.687,-13.725 -27.161,-16.371c-22.686,-6.714 -45.985,-7.02 -69.253,-5.825c-9.013,0.491 -17.811,4.813 -26.701,7.419l0.429,1.656l35.224,-7.971l0.337,1.625l-18.393,6.438l0.367,1.962c10.73,-1.441 20.632,4.138 31.73,2.268c11.097,-1.87 22.409,-1.471 33.721,-2.084c-7.547,2.023 -15.217,3.559 -22.961,4.598c-1.134,0.184 -3.066,0.828 -3.066,1.288c0,3.954 -3.311,3.065 -5.426,3.924c-1.165,0.459 -2.391,0.766 -3.617,1.165l0.337,1.839c2.054,-0.215 4.108,-0.368 6.131,-0.613c11.159,-1.288 22.256,-2.821 33.446,-3.802c3.017,0.128 6,0.685 8.86,1.656l-0.276,1.103l-31.668,2.33l-0,1.349c6.53,0 13.09,-0.276 19.589,0c6.499,0.276 12.661,1.472 19.007,2.238l-0.184,1.839c-4.169,0.215 -8.308,0.491 -12.477,0.583c-4.169,0.092 -8.216,-0 -12.262,-0l-0,1.809c15.941,1.747 31.943,3.249 45.984,12.262c-4.983,-0.604 -9.906,-1.629 -14.715,-3.066c-8.969,-2.747 -18.535,-2.907 -27.591,-0.459c-1.467,0.737 -2.803,1.71 -3.954,2.881l0.981,1.043l20.785,-3.526c-0.859,7.327 -7.665,4.997 -10.761,8.645c2.115,0.307 3.802,0.705 5.488,0.767c15.023,0.537 29.53,5.651 41.569,14.653c5.427,3.955 5.457,3.924 5.12,11.036l-17.045,-5.702c2.27,2.182 4.791,4.086 7.511,5.672c10.365,6.609 18.108,16.629 21.888,28.326c5.396,15.022 8.339,29.859 2.698,45.555c-3.587,8.829 -5.916,18.21 -8.737,27.713Zm-151.411,127.959c2.764,-0.541 5.437,-1.47 7.94,-2.759c3.679,-2.881 9.013,-4.598 8.369,-11.128c0.149,-3.259 0.507,-6.505 1.073,-9.718c0.033,-1.75 -0.436,-3.473 -1.348,-4.966c-6.132,-9.381 -12.263,-18.701 -18.731,-28.388c-18.701,3.066 -18.21,2.483 -20.601,21.184c-0.091,0.351 -0.153,0.71 -0.184,1.072c-0.408,8.681 1.53,17.313 5.61,24.985c5.273,-14.531 4.997,-28.326 5.119,-42.244c9.029,15.785 13.448,33.791 12.753,51.962Zm145.709,-97.517c-16.707,1.839 -32.403,16.37 -36.787,34.427c28.081,-13.673 47.793,-35.5 68.24,-56.683c-1.96,0.078 -3.882,0.569 -5.64,1.44c-5.856,3.066 -11.588,6.132 -17.474,8.952c-4.997,2.483 -10.301,4.445 -8.339,11.925l0,-0.061Zm-181.576,-15.328c1.931,-0.858 3.954,-1.104 4.414,-2.085c1.809,-3.801 10.423,-4.966 4.782,-11.802c-0.459,-0.552 0,-2.054 0.338,-3.066c0.596,-1.853 0.906,-3.786 0.919,-5.733c-2.391,-14.96 -10.086,-27.835 -16.646,-41.11c-0.663,-1.087 -1.422,-2.113 -2.268,-3.065c-0.163,0.952 -0.255,1.915 -0.276,2.881c2.084,19.099 4.169,38.198 6.407,57.266c0.524,2.298 1.306,4.53 2.33,6.653l-0,0.061Zm85.837,-1.778c-2.023,7.051 -0.583,11.894 5.211,15.512c3.699,2.621 7.241,5.456 10.607,8.492c7.235,5.916 9.351,5.303 12.263,-3.71l6.131,0c-1.555,-3.092 -3.403,-6.028 -5.518,-8.767c-3.801,-4.047 -8.032,-7.695 -12.262,-11.374c-0.989,-0.736 -2.203,-1.104 -3.434,-1.042c-4.476,0.092 -8.798,0.49 -13.09,0.828l0.092,0.061Zm29.185,-242.797l-0.522,-1.318c-15.696,3.311 -31.606,6.131 -44.052,17.995l43.807,-4.721l0,-0.95l-7.204,-1.349l-0,-1.196l6.744,-1.993l-7.051,-1.594l-0.214,-1.502l8.492,-3.372Zm-98.07,66.187l-1.563,-0.307l-4.384,6.928l-3.065,-5.273l-9.197,7.848l19.834,18.394l2.269,-1.195l-3.894,-26.395Zm47.518,199.602l-0.981,1.318c4.659,9.565 9.299,19.119 13.917,28.664l1.901,0.429c-3.924,-10.546 6.438,-10.485 10.914,-15.941l-25.751,-14.47Zm56.192,-13.397l1.533,0l5.763,-19.16l-24.31,2.422l-0.674,1.809c3.065,4.016 5.916,8.062 9.043,11.986c0.736,0.63 1.756,0.818 2.667,0.491c0.605,-0.782 0.841,-1.79 0.644,-2.759c-0.306,-2.392 -0.858,-4.783 -1.318,-7.143l1.962,-0.46l4.69,12.814Zm13.857,20.601l1.809,2.146l28.019,-22.532c-15.481,-0.675 -30.227,7.603 -30.656,15.542l7.848,-1.226l0.276,1.196l-7.296,4.874Zm-57.327,-4.476c3.985,2.698 7.725,4.936 11.128,7.542c5.12,3.924 8.247,3.311 11.895,-3.802l-18.394,-13.212l-4.629,9.472Zm-26.487,-14.715l-0,0.828l-12.753,0.705c6.928,3.25 12.262,5.764 17.535,8.185c0.637,0.189 1.323,0.112 1.901,-0.214c0.674,-2.851 2.269,-6.131 1.533,-8.584c-2.514,-8.645 -9.504,-10.392 -17.29,-4.445l9.074,3.525Zm104.231,-6.652l-16.953,-9.197l-3.066,18.731l20.019,-9.534Zm-3.372,25.199c-10.822,1.962 -18.394,8.247 -24.678,16.34c5.119,6.131 5.027,6.131 9.626,0.276c2.789,-3.556 5.947,-6.836 8.982,-10.178c1.809,-2.238 3.893,-4.322 5.916,-6.468l0.154,0.03Zm-60.638,-134.12l1.287,1.624l29.645,-20.539c-3.74,-1.778 -11.19,-1.104 -13.887,1.533c-3.618,3.556 -7.419,6.959 -11.037,10.576c-2.115,2.207 -4.016,4.537 -6.008,6.806Zm-87.738,124.157c0.23,2.448 0.681,4.869 1.349,7.235c0.578,1.278 1.707,2.226 3.065,2.575c2.7,0.265 5.426,0.015 8.032,-0.736c1.542,-0.778 2.6,-2.273 2.821,-3.985c-0,-1.686 -1.349,-4.69 -2.453,-4.844c-4.26,-0.39 -8.542,-0.472 -12.814,-0.245Zm105.426,59.657c-11.312,-2.36 -19.006,-9.779 -26.548,-19.559c1.543,11.275 11.279,19.77 22.659,19.77c1.303,-0 2.605,-0.112 3.889,-0.334l0,0.123Zm-34.181,-186.298c-8.277,-11.925 -20.08,-18.669 -32.036,-25.23l-0.828,1.196l32.864,24.034Zm-42.643,-45.984l1.533,-0.306c-1.104,-6.275 -2.197,-12.559 -3.28,-18.854c-0.215,-1.318 -0.307,-2.667 -0.521,-4.016c-0.215,-1.349 -0.522,-2.728 -0.798,-4.108c-0.919,1.073 -2.452,1.993 -2.697,3.066c-1.778,8.921 2.728,16.309 5.763,24.065l0,0.153Zm69.682,197.886c-6.561,-3.342 -13.459,0.49 -17.045,9.013c7.51,0.429 12.569,-3.189 17.045,-9.166l-0,0.153Zm-76.12,-6.438c-1.992,-4.844 -6.131,-5.794 -12.446,-3.893c-3.618,1.103 -3.924,3.065 -2.299,6.56l14.745,-2.667Zm-11.281,9.442l-0.644,1.901c1.487,1.497 3.12,2.843 4.874,4.016c1.107,0.151 2.226,-0.185 3.066,-0.92c0.307,-3.771 3.066,-3.372 5.487,-3.587c1.108,-0.361 2.145,-0.91 3.066,-1.624l-0.644,-2.054l-15.205,2.268Zm119.559,-183.937l28.878,4.629c-8.626,-5.314 -19.023,-6.981 -28.878,-4.629Zm90.742,247.15c6.131,2.177 11.956,6.714 20.172,4.507c-6.469,-5.825 -13.366,-5.12 -20.141,-4.507l-0.031,0Zm-175.261,-77.1c-0.951,-3.679 -6.683,-5.181 -13.06,-2.82c3.698,2.895 8.529,3.935 13.09,2.82l-0.03,-0Zm146.046,-40.098c-8.308,-0 -14.255,3.494 -14.501,8.338l14.501,-8.338Zm-34.734,-115.298c-6.131,-5.917 -9.442,-6.53 -14.653,-2.177l14.653,2.177Zm-121.03,241.57l-0,-1.716c-4.292,0.245 -8.584,0.459 -12.876,0.858c-0.552,0 -1.011,1.134 -1.502,1.747c0.613,0.491 1.318,1.472 1.839,1.38c4.139,-0.644 8.339,-1.502 12.539,-2.269Zm68.946,-137.952l2.697,-0.614c-1.134,-3.77 -2.299,-7.572 -3.433,-11.373l-2.054,0.583l2.79,11.404Z" style="fill:#fff;fill-rule:nonzero;"/><path d="M274.526,47.892c10.392,-0 18.915,-0.184 27.591,-0c8.675,0.184 8.43,0.429 8.277,8.767c-0,7.327 -1.84,7.358 7.541,7.695c8.155,0.307 16.248,1.41 24.372,2.238c1.656,0.422 3.276,0.975 4.844,1.655c-2.062,1.696 -4.211,3.282 -6.438,4.752c-12.263,7.143 -19.712,20.877 -17.965,33.047l35.377,-4.322l0.859,1.165c-14.194,17.474 -19.835,38.719 -27.376,59.197c2.667,-17.474 6.376,-34.826 5.794,-52.453c-6.377,0.889 -12.079,1.594 -17.75,2.483c-0.423,0.107 -0.857,0.16 -1.294,0.16c-2.909,0 -5.303,-2.394 -5.303,-5.303c-0,-0.084 0.002,-0.168 0.006,-0.252c-0.533,-5.566 -0.389,-11.176 0.429,-16.708c1.347,-5.997 3.067,-11.905 5.15,-17.688c-3.464,-0 -6.438,0.183 -9.411,-0c-8.369,-0.583 -11.128,-3.066 -12.845,-11.343c-1.717,-8.277 -3.066,-9.197 -11.282,-6.131c-0.858,0.306 -1.686,0.735 -2.544,0.95c-3.679,0.95 -7.449,4.292 -11.159,0.644c-4.23,-4.17 -7.511,-9.013 -5.978,-15.512c1.073,-4.599 2.361,-9.197 3.403,-13.734c1.042,-4.537 -1.104,-7.542 -6.131,-8.063c-12.004,-0.979 -24.077,0.717 -35.347,4.966c-28.265,9.718 -56.223,20.203 -84.212,30.35c-0.779,0.398 -1.704,0.398 -2.483,-0c2.778,-1.907 5.699,-3.598 8.737,-5.058c25.965,-9.902 51.747,-20.356 78.081,-29.185c17.457,-6.195 36.344,-7.186 54.353,-2.851c8.431,2.115 8.676,2.483 6.407,10.668c-1.331,6.301 -5.016,11.862 -10.3,15.543c-1.042,0.583 -1.594,1.931 -3.403,4.323Z" style="fill:#fff;fill-rule:nonzero;"/><path d="M31.76,135.384l-31.76,7.603c3.771,-10.025 1.778,-20.509 10.209,-27.591c0.981,-0.827 1.072,-2.636 1.931,-3.709c2.667,-3.403 5.579,-6.622 8.277,-9.994c2.698,-3.372 5.028,-7.081 7.971,-10.208c3.433,-3.618 7.388,-6.745 11.097,-10.117c1.533,-1.41 3.066,-2.851 4.476,-4.292l-0.46,-1.992l-11.527,-0c-1.348,-0 -3.372,0.153 -3.924,-0.583c-4.414,-6.131 -8.062,-12.722 -6.131,-20.631c0.429,-1.809 2.821,-3.066 4.292,-4.691c1.899,1.859 3.594,3.914 5.058,6.131c0.675,1.196 -0.245,3.066 -0.184,4.813c0,2.146 0,6.132 0.705,6.132c2.668,0.551 5.703,3.617 8.554,-0.154c0.429,-0.582 2.728,0 4.015,0.399c5.611,2.023 11.159,4.2 16.984,6.407c-0.142,6.08 -3.558,11.632 -8.921,14.5c-5.641,3.281 -11.741,5.702 -17.658,8.4c-5.917,2.698 -11.649,5.181 -14.991,11.19c-0.644,1.134 -2.238,1.747 -3.403,2.575c-2.462,1.718 -3.933,4.539 -3.933,7.541c0,3.545 2.05,6.787 5.252,8.308c2.862,1.148 5.647,2.479 8.338,3.985c2.114,1.787 4.036,3.791 5.733,5.978Z" style="fill:#fff;fill-rule:nonzero;"/><path d="M63.458,20.117c6.132,-0.797 8.737,-3.771 7.235,-7.848c-1.424,-2.822 -3.886,-4.987 -6.867,-6.039c-4.579,-1.096 -9.23,-1.865 -13.918,-2.299c-3.506,-0.597 -6.925,-1.626 -10.178,-3.066c9.535,-1.961 19.46,-0.564 28.081,3.955c3.066,1.747 6.132,3.985 9.197,5.886c2.355,1.131 3.859,3.522 3.859,6.134c0,1.279 -0.36,2.531 -1.038,3.614c-1.748,3.495 -7.848,4.384 -11.312,2.238c-1.257,-0.644 -2.422,-1.134 -5.059,-2.575Z" style="fill:#fff;fill-rule:nonzero;"/><path d="M100.276,467.36l0.46,-2.483c0.337,-0.245 0.583,-0.46 0.613,-0.399c7.296,5.886 4.875,-4.414 8.186,-4.874c4.169,-0.582 8.369,-0.797 12.569,-1.196c-0.307,1.778 -0,4.813 -0.981,5.151c-6.5,2.513 -12.508,7.664 -20.847,3.801Z" style="fill:#fff;fill-rule:nonzero;"/><path d="M58.4,32.594c-3.066,4.997 -6.836,2.667 -10.607,1.441c3.004,-5.396 6.836,-2.851 10.607,-1.441Z" style="fill:#fff;fill-rule:nonzero;"/><path d="M0.245,159.235l0,-6.131l7.511,-0.797l0.92,1.686l-8.431,5.242Z" style="fill:#fff;fill-rule:nonzero;"/><path d="M71.184,455.527l-7.082,2.115l-0.276,-7.174l7.358,5.059Z" style="fill:#fff;fill-rule:nonzero;"/><path d="M274.066,189.738l-34.825,-15.727c8.185,-0.49 32.741,10.025 34.825,15.727Z" style="fill:#fff;fill-rule:nonzero;"/></svg>