<?xml version="1.0" encoding="UTF-8" standalone="no"?><!DOCTYPE svg PUBLIC "-//W3C//DTD SVG 1.1//EN" "http://www.w3.org/Graphics/SVG/1.1/DTD/svg11.dtd"><svg width="100%" height="100%" viewBox="0 0 27 10" version="1.1" xmlns="http://www.w3.org/2000/svg" xml:space="preserve" style="fill-rule:evenodd;clip-rule:evenodd;stroke-linejoin:round;stroke-miterlimit:2;"><path d="M25.095,4.935c-0.085,1.822 -1.607,3.275 -3.431,3.275c-1.824,-0 -3.346,-1.453 -3.431,-3.275c-0,-2.707 -2.228,-4.935 -4.935,-4.935c-2.708,-0 -4.935,2.228 -4.935,4.935c-0.086,1.822 -1.608,3.275 -3.432,3.275c-1.824,-0 -3.346,-1.453 -3.431,-3.275l-1.5,0c0.103,2.633 2.297,4.743 4.931,4.743c2.635,-0 4.829,-2.11 4.932,-4.743c-0,-1.884 1.55,-3.435 3.435,-3.435c1.884,-0 3.435,1.551 3.435,3.435c0.102,2.633 2.296,4.743 4.931,4.743c2.634,-0 4.828,-2.11 4.931,-4.743l-1.5,0Z" style="fill:#d65a27;fill-rule:nonzero;"/></svg>