<?xml version="1.0" encoding="UTF-8" standalone="no"?><!DOCTYPE svg PUBLIC "-//W3C//DTD SVG 1.1//EN" "http://www.w3.org/Graphics/SVG/1.1/DTD/svg11.dtd"><svg width="100%" height="100%" viewBox="0 0 345 34" version="1.1" xmlns="http://www.w3.org/2000/svg" xmlns:xlink="http://www.w3.org/1999/xlink" xml:space="preserve" xmlns:serif="http://www.serif.com/" style="fill-rule:evenodd;clip-rule:evenodd;stroke-linejoin:round;stroke-miterlimit:2;"><g id="Layer_2"><g id="Layer_2-2"><path d="M327.85,0c-9.137,0.005 -16.655,7.523 -16.66,16.66c-0,6.396 -5.264,11.66 -11.66,11.66c-6.396,-0 -11.66,-5.264 -11.66,-11.66c-0,-9.139 -7.521,-16.66 -16.66,-16.66c-9.139,0 -16.66,7.521 -16.66,16.66c0,6.396 -5.264,11.66 -11.66,11.66c-6.396,0 -11.66,-5.264 -11.66,-11.66c-0,-9.139 -7.521,-16.66 -16.66,-16.66c-9.139,0 -16.66,7.521 -16.66,16.66c0.003,0.114 0.005,0.228 0.005,0.341c0,6.397 -5.264,11.66 -11.66,11.66c-6.396,0 -11.66,-5.263 -11.66,-11.66c0,-0.113 0.002,-0.227 0.005,-0.341c-0.22,-8.988 -7.674,-16.262 -16.665,-16.262c-8.991,0 -16.445,7.274 -16.665,16.262c0.003,0.114 0.005,0.228 0.005,0.341c0,6.397 -5.264,11.66 -11.66,11.66c-6.396,0 -11.66,-5.263 -11.66,-11.66c0,-0.113 0.002,-0.227 0.005,-0.341c0,-9.139 -7.521,-16.66 -16.66,-16.66c-9.139,-0 -16.66,7.521 -16.66,16.66c0,6.396 -5.264,11.66 -11.66,11.66c-6.396,0 -11.66,-5.264 -11.66,-11.66c0,-9.139 -7.521,-16.66 -16.66,-16.66c-9.139,-0 -16.66,7.521 -16.66,16.66l0.1,0c-1.073,5.445 -5.891,9.406 -11.44,9.406c-6.38,0 -11.636,-5.236 -11.66,-11.616l-5,-0c0,9.139 7.521,16.66 16.66,16.66c9.139,-0 16.66,-7.521 16.66,-16.66l-0.1,-0c1.073,-5.445 5.891,-9.406 11.44,-9.406c6.38,-0 11.636,5.236 11.66,11.616c0,9.139 7.521,16.66 16.66,16.66c9.139,-0 16.66,-7.521 16.66,-16.66c0,-6.396 5.264,-11.66 11.66,-11.66c6.396,-0 11.66,5.264 11.66,11.66c0,9.139 7.521,16.66 16.66,16.66c9.139,0 16.66,-7.521 16.66,-16.66c-0.003,-0.114 -0.005,-0.228 -0.005,-0.341c0,-6.397 5.264,-11.66 11.66,-11.66c6.396,-0 11.66,5.263 11.66,11.66c0,0.113 -0.002,0.227 -0.005,0.341c0.22,8.988 7.674,16.262 16.665,16.262c8.991,-0 16.445,-7.274 16.665,-16.262c-0.003,-0.114 -0.005,-0.228 -0.005,-0.341c0,-6.397 5.264,-11.66 11.66,-11.66c6.396,-0 11.66,5.263 11.66,11.66c0,0.113 -0.002,0.227 -0.005,0.341c0,9.139 7.521,16.66 16.66,16.66c9.139,-0 16.66,-7.521 16.66,-16.66c0,-6.396 5.264,-11.66 11.66,-11.66c6.396,0 11.66,5.264 11.66,11.66c0,9.139 7.521,16.66 16.66,16.66c9.139,-0 16.66,-7.521 16.66,-16.66c-0.003,-0.114 -0.005,-0.228 -0.005,-0.341c-0,-6.397 5.264,-11.66 11.66,-11.66c6.396,-0 11.66,5.263 11.66,11.66c-0,0.113 -0.002,0.227 -0.005,0.341l5,-0c-0.011,-9.131 -7.519,-16.644 -16.65,-16.66Z" style="fill:#fff;fill-rule:nonzero;"/></g></g></svg>