<svg width="98" height="50" viewBox="0 0 98 50" xmlns="http://www.w3.org/2000/svg" fill="#16181E">
    <path d="M65.883963 26.6204188c-.2082341-.0030996-.4146064.0400164-.6045707.1263089-.1081605.0513-.2111326.113109-.3074636.184555v-.242801h-.9029723v4.5431937h.8738441v-1.6701571c.0894721.0438195.1826165.0795182.2783356.1066754.1946618.0489453.3949918.0709611.5955085.065445.2437844-.000832.4827526-.0687002.6913078-.196335.2185732-.1340057.3974413-.3250245.5178336-.5530105.136085-.270453.2051675-.5702762.2013078-.8736911.0189879-.4052833-.118662-.8021469-.3838441-1.1066754-.2560062-.2526518-.6016122-.3908197-.9592867-.3835079zm.1825363 2.3200262c-.1115165.1486261-.2860795.2350521-.4705812.2329843-.1402452.0193317-.2824364.0193317-.4226816 0l-.230436-.1452879v-1.553665l.2498547-.1452879c.1265977-.0582063.2641928-.0879054.4032629-.0870419.1753698-.007022.3457662.0598049.4705812.184555.166489.2001037.2460729.459665.2207266.7198953.0176872.2823739-.0604022.5624033-.2213739.7938481h.0006473zM47.0322325 12.5510471c.4444319-.2262566.8269992-.5595637 1.1139894-.9705497.2669208-.3698096.4145244-.8138608.4226817-1.2715969.0025623-.4021107-.1098253-.7964083-.323646-1.13547118-.2045855-.31954615-.4809298-.58571638-.8065258-.77683246-.2936585-.1775768-.6226125-.28709966-.9631704-.32068063.2151335-.08788844.4209378-.19751977.6142801-.32722513.2186888-.14866082.4023333-.34416743.5378996-.57264398.1679844-.29419532.2480259-.6313139.2304359-.97054974-.00805-.5686235-.2777709-1.10096425-.729498-1.43979057-.6429642-.4593656-1.4204836-.6858155-2.2066182-.6426701h-2.8804492l-.0194187 8.8043194h3.4371202c.5466503.0046555 1.0863025-.1244521 1.5729194-.3763089zm-3.1969749-7.13350783h.671889c.3692221-.01735098.7347443.0809253 1.0466711.2814136.3014104.22530342.4650044.59305873.4317437.97054975.0242241.37589594-.1375093.7394689-.4317437.97054974-.3086044.20886577-.6758227.31104222-1.0466711.29123036l-.671889-.04842932V5.41753927zm1.2000793 6.29712043l-.0097094.0484293h-1.1903699V9.12434555h1.2000793c.4087282-.01778438.8123941.09685887 1.1521796.32722513.285841.23959028.4512528.59547632.4512528.97087692 0 .3754007-.1654118.7312867-.4512528.970877-.3404794.2282901-.7440914.3408548-1.1521796.3213351zm8.4199735-2.30890054h-1.2097886c-.6212327.0046049-1.2229684.219846-1.7088507.61125654-.3979801.3412048-.6263944.8428532-.6239895 1.3704189-.0090332.4539058.1776028.8893488.5113607 1.1930628.3803853.3211248.8639853.4901611 1.3593131.4751309.3618344.0034347.7197185-.0762287 1.046671-.2329843.219003-.1125913.4250157-.2493303.6142801-.4077225l.0770277.0294502v.2428011l.0860898.2617801h1.7761691c-.0546465-.1280973-.0964968-.2613946-.1249273-.3979058-.0394343-.1653557-.0611359-.3345254-.0647292-.5045811V8.8527487c.0153319-.51688036-.2185512-1.00909826-.6272259-1.3200262-.4814879-.3347664-1.0577522-.50179212-1.6415324-.47578533-.5296315-.00230977-1.0568082.07285784-1.5651519.22316754-.3291288.0931111-.6501765.2132759-.9599339.3592932l.3650726.8736911c.2092637-.0889283.4242208-.1634866.6434082-.2231675.3132657-.0837092.6359122-.1261632.959934-.1263089.3174941-.0349372.6348235.0672559.8738441.2814136.1505774.1886863.2258544.4275206.2110172.6695027l.0019418.29123037zm-.4893527 2.32984294c-.1978788.1086314-.418326.1685009-.6434082.1747382-.1920425.0060491-.3827814-.033866-.556671-.1164921-.2129971-.1149638-.3396297-.3454231-.323646-.5890053-.0028209-.2851494.1530481-.5477196.4032629-.6793193.2441385-.1289879.5122313-.2049999.787107-.2231676l.8162351-.065445v1.2133508c-.1275165.0818063-.2906341.1786649-.4828798.2853403z"/>
    <polygon points="59.2543989 3.66884817 57.5455482 3.85340314 57.5455482 12.9489529 59.2543989 12.9489529"/>
    <path d="M64.7563804 13.0948953c.230436 0 .4317438-.0582461.6045707-.0870419v-.0582461l-.0770277-.9024869h-.4317437c-.1805269-.0052177-.3603744-.0246924-.5378996-.0582461-.236593-.0086906-.4578853-.1204916-.6068081-.3065707-.1489228-.1860791-.2108978-.4282206-.1699423-.663979V8.19240838h1.5457332v-.97054974h-1.5535007L63.465033 4.8435864h-1.0130119l-.6356407 2.37827224h-.9586393v.97054974h.9586393v3.20353402c-.0489571.5235674.1813565 1.033916.6045707 1.3396597.4292495.2591301.9247038.3841358 1.4240423.3592932.3035988.0156376.6077882.0156376.911387 0z"/>
    <rect x="67.2044386" y="7.17342932" width="1.69914135" height="5.7565445"/>
    <path d="M68.0491546 5.96007853c.2307121-.00282007.4511807-.09677443.61428-.2617801.1661922-.1596589.2628241-.3795441.2686262-.61125655-.036285-.477349-.4114257-.85663835-.8835535-.8933246v.00981675c-.2296641.00366147-.4479506.10172435-.6045707.27159686-.1636732.1614436-.2598257.380238-.2686262.6112565.0078708.2312359.1041704.4503647.2686262.6112565.1595716.1648154.3771265.25915155.605218.26243453zm7.1435138 5.88547117c-.2886988.0487045-.5811985.0706108-.8738441.0654451-.4061287-.0103574-.7920855-.1811543-1.0751519-.4757854-.7072572-.791011-.7072572-1.99498375 0-2.78599474.2809762-.29895292.6674353-.4735007 1.0751519-.4856021.2899741-.00545752.5796871.02065267.8641347.0778796l.5281903.1551047.3074636-1.04712042c-.2196089-.0938788-.4479412-.16535033-.6815984-.2133508-.4241006-.08156102-.8551307-.12058106-1.2868163-.11649213-.5283525.0019328-1.0485813.1316332-1.5172524.3782723-.4683149.244569-.8679652.6047428-1.161889 1.0471204-.3061782.4729095-.4665804 1.0270872-.4608719 1.5922775l-.0097093.0294502c-.0197488.8172093.3011085 1.6051873.8842008 2.171466.6163398.5650712 1.4247732.8675417 2.2564597.8442408.4661506.0089618.931326-.0465254 1.3826156-.1649214.2434286-.0667528.4785989-.1611587.7010171-.2814136l-.3650726-.9705498c-.1831284.0775066-.3729432.1377536-.5670278.1799738z"/>
    <polygon points="50.2777543 15.6184555 48.5973844 20.598822 47.0801321 15.6184555 45.5059181 15.6184555 46.1972259 17.783377 45.1311361 20.7539267 43.5277939 15.6184555 41.9723514 15.6184555 44.4113474 23.190445 45.3712814 23.190445 46.7344782 19.4240838 47.9442668 23.190445 48.9139102 23.190445 51.6506605 15.6184555"/>
    <path d="M56.1053236 18.3854712c-.4338064-.2131876-.9099895-.3235337-1.3923249-.322644l-.0284809.0098168c-.4821084-.0014761-.9582312.1079608-1.3923249.3200262-.4119154.2006852-.7632384.5091198-1.017543.8933246-.3935776.6068044-.5075127 1.3563668-.3123121 2.0546571.1952006.6982903.680347 1.2766606 1.3298551 1.5853952.8777259.422759 1.8972145.422759 2.7749405 0 .4061569-.2060048.7508509-.5174692.9987715-.9024869.527062-.8387464.527062-1.9099447 0-2.7486911-.2391102-.3751444-.5699862-.6815011-.9605813-.8893979zm-.5281902 3.388089c-.2093655.3091035-.556058.4938987-.9265984.4938987s-.7172329-.1847952-.9265984-.4938987c-.3980188-.6932124-.3980188-1.5489342 0-2.2421466.2123064-.3047272.5579354-.4860148.9265984-.4860148.368663 0 .714292.1812876.9265984.4860148.4530159.6769694.4530159 1.5645227 0 2.2414922v.0006544zm6.2508983-3.7571989c-.2100109.0055139-.4149108.0666707-.594214.177356-.1672074.1008105-.3219243.221427-.4608719.3592932-.0987529.1012081-.191684.2080589-.2783355.3200261v-.7401832H59.070568v4.9509162l1.4596434.0386126v-3.4070681c.1302229-.1133527.2682259-.2172341.4129722-.3108638.1776079-.1180218.3832296-.1858139.5955086-.1963351.1274634-.0159228.2563807-.0159228.3838441 0 .0871056.0211337.171103.0536961.2498547.0968586l.5281902-1.0386125c-.1006351-.0684434-.2093663-.12385-.3236459-.1649215-.1766332-.0606203-.3624211-.0894169-.5489036-.0850785z"/>
    <polygon points="68.6349538 18.1812827 67.09893 18.1812827 65.3991413 20.1034031 65.3991413 15.1721204 63.9304359 15.3272251 63.9304359 23.1223822 65.3991413 23.1223822 65.3991413 20.7054974 67.3099472 23.2388743 69.047926 23.1223822 66.7053765 20.190445"/>
    <path d="M74.8470145 18.6374346c-.4249534-.4122658-.9951645-.6358516-1.5839234-.6210733-.3425933-.0029369-.6842728.0361799-1.0175429.1164921-.1776934.0415396-.351083.1000484-.5178335.1747382v-3.1354712l-1.4596434.1551047v7.7663613h1.392325l.0647292-.4077225c.1507127.1223575.3149222.2266725.4893527.3108638.3000664.1431137.6281679.2160361.959934.2133508.4091835.0098461.8135772-.0906762 1.1715984-.2912303.3618353-.2238561.657064-.5424754.8544253-.9221205.2301785-.4626969.3391579-.9773426.3165258-1.4947643.0355202-.6875758-.206209-1.3603321-.6699472-1.8645288zm-1.2945839 3.2519633c-.2193282.2259674-.5220077.3490899-.8350066.3396597-.2069592-.0010938-.4108314-.0508331-.5955085-.145288-.1404567-.0702164-.2752861-.151396-.4032629-.242801l.0097094-.0098168v-2.5903141c.1228401-.06124.2514274-.1099113.3838441-.145288.2296352-.054893.4650718-.0810489.7010171-.0778795.3156207-.0126785.6172104.1324423.8065258.388089.4715792.7670226.4443151 1.7446996-.0692602 2.4836387h.0019418zm7.4587451-3.5039267c-.434472-.2132604-.9113015-.3236023-1.3942668-.322644v.0098168c-.4822219-.0025163-.9585738.1069733-1.392325.3200262-.8688029.41287-1.4234521 1.2960869-1.4234521 2.2666884 0 .9706015.5546492 1.8538185 1.4234521 2.2666885.8774093.4241734 1.8975313.4241734 2.7749405 0 .8730552-.410594 1.4322006-1.2949442 1.4342811-2.268474.0020806-.9735299-.5532796-1.8603148-1.4245717-2.2747197l.0019419.0026178zm-.4990621 3.388089c-.2093655.3091035-.556058.4938987-.9265984.4938987s-.7172329-.1847952-.9265984-.4938987c-.3980188-.6932124-.3980188-1.5489342 0-2.2421466.2123064-.3047272.5579354-.4860148.9265984-.4860148.368663 0 .714292.1812876.9265984.4860148.4693969.6718775.4691375 1.5698919-.0006473 2.2414922l.0006473.0006544zm7.6995377 1.0091623c-.0347367-.142976-.0540524-.2893358-.057609-.4365183v-2.7486911c.015321-.4446903-.1855935-.8688078-.5378996-1.1354712-.4138471-.2877609-.9093523-.4309323-1.4110965-.4077225-.4550809.000682-.9077538.0667888-1.3444253.1963351-.2730234.0830259-.5393986.1869475-.7968164.3108638l.3074637.757199c.1777612-.0777682.360494-.1433612.5469617-.1963351.2756536-.0732416.5597129-.1091141.8447159-.1066754.2724792-.0309216.5450314.0574406.7489168.2428011.1308147.1603791.1961088.3652163.1825363.5726439v.2526178h-1.0356671c-.5338993.0024019-1.0513791.1868717-1.4687054.5235602-.3394115.2931942-.5328439.7234036-.5281902 1.1747383-.007422.3914413.1536631.7668462.4414531 1.0287958.3281778.2760127.7449221.4210419 1.1715984.4077225.3090341.0022142.6144361-.0674235.8926156-.203534.1881973-.0965718.3653245-.2137678.5281902-.3494765l.0194188.0196335v.2133508l.0770277.2231675h1.5263144c-.046791-.1090809-.0825734-.2226582-.1068031-.3390052zm-1.5172524-.9515707c-.1326892.0922419-.2705801.1765907-.4129722.2526178-.1678507.094149-.3551677.1472674-.5469617.1551047-.166204.0035096-.3308443-.0330579-.4802906-.1066753-.1825239-.0985516-.2913211-.2957848-.2783356-.5045812-.004431-.2450099.1297482-.471115.3456539-.5824607.2079737-.1120943.4368362-.1789711.6718891-.1963351l.7010171-.0582461v1.0405759zm6.0877808.5143979c-.1533618.0128335-.3075101.0128335-.4608719 0-.1918374-.0205431-.3711536-.1061181-.5087715-.242801-.1435911-.1762235-.2095537-.4042063-.1825363-.6308901v-2.427356h1.3444254v-.8730366H91.63v-2.0287958h-.8738441l-.5469617 2.0386125h-.787107v.8632199h.787107v2.7486911c-.0526505.4366621.1216563.8698226.4608719 1.145288.3684994.2191025.7925938.3237951 1.219498.3010471h.7767503l.5178336-.0778796.0291281-.0386126-.0647292-.7768324-.3663672-.0006545zm4.9349537-1.4849476c-.1477141-.1933895-.326213-.3605923-.5281902-.4947644-.1619372-.1073038-.3320649-.2014055-.5087715-.2814136-.2299116-.1007691-.4542086-.2141578-.671889-.3396597-.1685085-.0741563-.2855187-.2330575-.3074637-.4175393.0047318-.1182885.0755046-.2235918.1825364-.2715968.1227971-.0592906.2574875-.0890799.3935535-.0870419.2184837.0034564.4352752.0393999.6434081.1066754.1729223.0516907.3427885.1133091.5087715.184555l.3650727-.8540576c-.197812-.0952354-.4033218-.1731812-.6142801-.2329843-.3329801-.0819746-.6748646-.1211148-1.0175429-.1164922-.4686718-.0222141-.9291743.1298027-1.2945839.427356-.3203731.2792051-.4999779.6889858-.4893527 1.1164922-.0012925.2626789.0756167.5196739.2207265.7375654.1309434.1945254.2969551.3623729.4893527.4947644.1638477.1150266.3370846.2157393.5178336.3010472.2273134.1032633.4484218.219957.6621797.3494764.1739078.0808622.2956524.2450655.3236459.4365183-.000961.116471-.0630836.2236461-.1631175.2814136-.1132818.0670675-.2429134.1006274-.3741348.0968587-.2997995-.0062944-.5972323-.0552031-.8835535-.145288-.2205589-.0674005-.4356629-.1518556-.6434082-.2526178l-.0194187.0196335-.3650727.8736911c.213747.1070382.4350865.1978219.6621797.2715969.3928635.1157044.8006453.1712943 1.2097886.1649214.3151552.0011596.6266434-.0683536.9120344-.203534.2856161-.1280451.5360221-.3246097.729498-.572644.1915044-.2502408.2961481-.5572935.2977543-.8736911-.0011536-.2592498-.0844059-.5113101-.2375562-.7192408zm-53.3879921 7.1577225c-.0974173-.0669301-.2002739-.1253857-.3074636-.1747382-.1383917-.0594856-.2730631-.1274567-.4032629-.203534-.1001821-.0463488-.1693205-.1420316-.1825363-.2526178l.1055086-.1649215.2401453-.0484293c.1303977.0030106.2596812.0250533.3838441.065445l.3074637.1164921.2207265-.5143979c-.1210226-.0551381-.2461133-.1006513-.3741347-.1361256-.2006987-.0520135-.4070931-.0781806-.6142801-.0778796-.2813869-.0083468-.556594.0844034-.7767503.2617801-.1950409.1655799-.3046794.4121029-.2977543.6695026-.0008843.1591339.0460677.3147848.1346367.4463351.079234.11873.180323.2209369.2977543.3010471.0973406.0698897.2001712.1316137.3074637.184555.1386819.0625615.2733649.1338171.4032629.2133508.1063821.0474695.1820282.1458394.2013078.2617801l-.0957993.1747382-.2207265.0582461c-.184484.0048774-.3686998-.0171644-.5469617-.065445-.1313273-.0387602-.2596279-.0873229-.3838441-.145288v-.0386126l-.2207266.5235602c.1267785.0651599.2583562.1202985.3935535.1649215.2360553.06943.4811058.1025236.7269089.0981675.1883494.0000516.3746382-.0396243.5469617-.1164921.1715547-.0764888.3228128-.1928688.4414531-.3396597.1141972-.1539136.1749494-.3416364.1728269-.5340314-.0025509-.1541347-.0528045-.3035875-.1436988-.427356-.0881293-.1171114-.1948725-.2186217-.3158785-.3003927zm7.4315588-1.3979058c-.2288528-.0004072-.455044.0496193-.6628269.1465969-.1273656.0568754-.2495286.1249833-.3650727.203534v-2.0876963l-.8835535.0968586v4.6982985h.8835535v-2.1551047l.2401453-.145288c.1069935-.0556942.2253227-.0854916.3456539-.0870419.1323998-.0140002.2646079.0281864.3650727.1164922.0782485.0946376.1161906.2167832.1055086.3396596v1.941754l.8835535-.0098168v-2.1361256c.0137688-.2475222-.0737774-.4898717-.2420872-.6701571-.1829078-.1680539-.4228771-.2583051-.6699472-.2519634z"/>
    <rect x="57.924214" y="26.697644" width="1" height="2.98036649"/>
    <path d="M58.356605 25.1544503c-.1189301.0023747-.232346.0511506-.3165257.1361256-.0824167.0862118-.1303736.2002036-.1346368.3200262.003864.1172267.0520525.2284896.1346368.3108639.0829655.0867778.1971533.1358856.3165257.1361256.1191041-.0015464.2328156-.0504494.3165258-.1361256.0836104-.0816567.1319903-.1933614.1346367-.3108639-.0023487-.1202453-.0505911-.2349156-.1346367-.3200262-.0847387-.0841334-.1978077-.1327601-.3165258-.1361256zm15.1213871 3.5628272l-.7489168-2.0189791h-.9120343l1.2298546 3.0386126-.1249273.3200262c-.0659348.1598512-.1463244.313207-.2401453.4581152-.0814168.1154841-.215245.1812897-.3553633.1747382-.0923719.0124196-.1859636.0124196-.2783355 0l-.230436-.0778796-.2110171.5235602c.0947244.0548842.1944313.1004677.2977543.1361257.1890864.0560209.3855735.0822882.5825627.0778795.2336036.0066898.4595101-.0847668.6239894-.2526178.1596712-.1799419.2806762-.3914241.3553633-.6210733l1.4887715-3.776178h-.7586262l-.718494 2.0176702zm8.6698282.4947644v-1.6505236c.0051267-.2655974-.115037-.517816-.3236459-.6793193-.2509866-.1730029-.5510461-.2582705-.8544254-.2428011-.2729429 0-.5445005.039223-.8065258.1164922-.1648284.0481074-.3254662.1098336-.4802906.1845549l.1825364.4581152c.1046508-.0474595.2128752-.0864134.3236459-.1164921.1659339-.0447149.3370498-.0667261.5087715-.0654451.1645961-.0189072.3293698.0339276.4531044.145288.0773193.0951486.1151393.2169011.1055085.3396597v.1452879h-.6239894c-.3217333.0031775-.6330126.115924-.8835535.3200262-.2074598.1753-.3262386.4354201-.323646.7087697-.0023.2334831.0957039.4564901.2686262.6112565.1956574.1662946.4456057.2528655.7010172.242801.1857686.0034467.3698262-.0364144.5378996-.1164921.1127586-.0594552.2188756-.1309822.3165257-.2133508l.0097094.0196335v.2617801h.959934l-.0647292-.203534-.006473-.2657068zm-.9023249-.3200262l-.2498547.1551047c-.0989096.0574229-.2097584.090597-.323646.0968587l-.2880449-.0582461c-.1092087-.0581497-.1734387-.1766917-.1631176-.3010471-.0029781-.1454304.0747298-.2803337.2013078-.3494765.1251565-.0662306.2623909-.105874.4032629-.1164921h.4226816l-.0025891.5732984zm7.7959841-2.2912304c-.1254243.0048881-.247622.0415703-.3553633.1066754-.1023968.0612275-.196041.1363108-.2783355.2231676l-.1728269.1963351v-.4463351h-.8350066v2.9803665l.8738441.0196335V27.617801l.2498547-.1845549c.105636-.0710678.2285798-.1113701.3553632-.1164922h.230436l.1436988.0582461.3165257-.6210733-.2013077-.0968586c-.1049068-.0377902-.2155175-.0568351-.3268825-.0562828zm7.3739498.2035341l-.2783355-.1066754c-.1948218-.0480299-.3950301-.0700323-.5955086-.065445-.2468819.0005274-.489055.0683533-.7010172.196335-.2185731.1340057-.3974413.3250245-.5178335.5530105-.1395288.269171-.2088171.5698875-.2013078.8736911-.0272915.3984514.1001966.7919541.3553633 1.0968586.2548031.2554445.6011813.3954807.9599339.388089.2075129.0061894.4138548-.0335698.6045707-.1164921.1110298-.0558775.2169514-.1215787.3165257-.1963351v.2428011l.9314531.0098167v-4.7971204l-.8738441.0968586v1.8246074zm-.0194187 2.0870419c-.07883.0558705-.1624486.1044939-.2498547.1452879-.1298673.0571851-.2700286.0865969-.4116777.0863874-.1755674.0082332-.346428-.0587758-.4705812-.1845549-.166489-.2001037-.2460729-.459665-.2207266-.7198953-.0168785-.2828023.0608702-.5631187.2207266-.7958115.1136962-.1459233.2868547-.2316539.4705812-.2329843.1391418-.0018259.2779379.0144507.4129723.0484293l.2498547.0968586-.0012946 1.5562828zM32.668177 5.2434555c-.6608851.43848167-1.6525363.8763089-2.299181 1.33704188-3.4377675 2.4803665-4.8482166 5.35471202-4.9142404 9.65510472l-.6246367-.7945026c-.2932233-6.27879584 2.8875693-8.64528798 7.8380581-11.9581152V0c-3.1124001 1.48654242-5.7695761 3.79593144-7.6904755 6.68390052-1.0874505 1.7526178-2.2655218 4.34489528-1.8292471 6.52814138.0342711.1860453.0885337.3677506.161823.5418848.1682959.2124782.3398283.4325916.5145971.6603403-.8414795-.143979-1.7010832-.2617801-2.5930515-.3409686-.7197887-.0595549-1.3664333-.1557591-1.8583752-.1557591h-.1035667c-.0415145-.0046683-.0834129-.0046683-.1249273 0v-.013089c-.0699827.0068123-.1376153.0291589-.1980714.065445l-.2498547.1112565c-2.5057831 1.2865756-4.6429514 3.2019813-6.2068824 5.5628273-.9405152 1.4856021-1.9464069 3.7133507-1.5793923 5.6282722.0301068.1605376.0769741.3173927.139815.4679319.1016249.1308901.2058389.2617802.3100529.3926702-.7586262-.13089-1.5360238-.2447644-2.34449144-.3128272-.62463673-.0517016-1.1897226-.1308901-1.61822986-.1308901h-.0957992c-.1065761-.0142442-.2148542.006641-.30875826.059555l-.0880317.0373037v.0274869l-.0809115.039267c-2.1624051 1.115333-4.00605765 2.7723087-5.35504623 4.8128272C.6265786 31.9803665-.255033 33.9260471.068613 35.5602094c.0262306.1380115.06837658.2724372.12557463.4005236 1.902391 2.4136125 4.40741083 6.171466 5.45019815 9.0085078.46008727 1.2057247.82120158 2.4477042 1.07968296 3.7133508.04401585.1708115.0880317.4581152.161823.8763089l.073144.401178h.24208716V29.7329843c.90610197-.0821671 1.81702294-.0955117 2.72509908-.0399215 1.44970287.0881537 2.89265927.2665018 4.32067367.5340314 1.2732233 1.9901833 2.4266975 4.0903142 3.0688111 5.8756545.5286454 1.3797155.9462117 2.8003462 1.2486262 4.2480366.0511361.1963351.1029194.527487.1838309 1.0098168l.0880317.4679319h.2789828v-.9437172l.0291282.0222513V18.5615183c1.0502603-.0960498 2.1062051-.1115828 3.1587846-.0464659 1.6081572.0992655 3.2089789.2959537 4.7938442.5890052 1.4363408 2.263089 2.7354557 4.6407068 3.4772523 6.6695026.6219647 1.5995979 1.1125448 3.2482794 1.4667635 4.9293194.0647292.2225131.1178072.6092932.2129591 1.1734293l.1029194.5418848h.3158785v-1.091623l-.0071203.0294502.0025892-26.1125654zm-11.4001057 9.2198953c.7916381.059555 1.8344254.1963351 2.873329.3717277.5968031.7918849 1.2182034 1.6577225 1.8344253 2.5634817-1.5443947-.2606292-3.1054308-.4078293-4.6708586-.440445-.8230881-.0215633-1.6466137.0195652-2.4635932.1230366l.30358-.2048429v-2.4299738c.7073587-.0393403 1.4164645-.0336571 2.1231175.0170157zM9.94822985 29.3193717c-1.0093863-.0386839-2.0201903-.0113581-3.02608982.0818063v.3566754c-.4673448.2722513-1.04861295.5497382-1.44928666.8318063-2.40355038 1.578315-3.80033046 4.3258198-3.6707926 7.2205497l-.46993395-.5942408C1.11204756 32.5150524 3.49926024 30.7323298 7.20889036 28.25v-2.1073298c.6094354-.0336597 1.22034386-.0292884 1.82924702.013089.71202114.0477748 1.66548222.1786649 2.60017172.3390052.5236592.6865183 1.0712682 1.4397906 1.6182299 2.2329843-1.3862201-.2402779-2.7882916-.375254-4.1944518-.4037958-.70978652-.0094513-1.41932542.0327608-2.12311758.1263089v.3455497h.11651255c.67521804-.1038044 1.3581325-.1476019 2.0409115-.13089l.0148877-.007199c1.45984053.0252902 2.91613923.1538767 4.35821663.3848168.1726112.2561082.3452224.5154886.5178336.7781413-1.3361414-.242633-2.6845882-.4099941-4.03910175-.5013089zM22.3257464 18.091623c-1.1589067-.0462427-2.3195593-.016512-3.4746632.0890053v.4057591c-.541136.3154451-1.2207926.6276178-1.6894319.9764398-2.9380582 2.1387435-4.1724439 4.611911-4.2313475 8.2958115l-.5437252-.683246c-.2433818-5.2657068 2.3496697-7.3193718 6.427609-10.0785341v.3926702h.1469353c.7751387-.1199039 1.5593152-.1696212 2.3431968-.1485602 1.6462428.0248336 3.2888468.164124 4.9161823.4168848.1959137.2923211.3901013.5879145.5825627.8867801-1.481457-.2660174-2.9760902-.4506252-4.4773183-.5530105z"/>
</svg>
