<?xml version="1.0" encoding="UTF-8" standalone="no"?><!DOCTYPE svg PUBLIC "-//W3C//DTD SVG 1.1//EN" "http://www.w3.org/Graphics/SVG/1.1/DTD/svg11.dtd"><svg width="100%" height="100%" viewBox="0 0 1497 2108" version="1.1" xmlns="http://www.w3.org/2000/svg" xmlns:xlink="http://www.w3.org/1999/xlink" xml:space="preserve" xmlns:serif="http://www.serif.com/" style="fill-rule:evenodd;clip-rule:evenodd;stroke-linejoin:round;stroke-miterlimit:2;"><g id="Layer_x0020_1"><g id="_1409020448784"><path d="M1194.39,97.257l-1194.39,999.871l0,-55.143l1194.39,-1041.99l0,97.257Z" style="fill:#1c1b17;"/><path d="M0.022,1520.7l9.025,-396.714l150.742,-111.085l-3.855,72.116l-79.392,63.503l-3.945,73.969l68.593,-46.461l-3.797,71.179l-68.594,46.461l-4.449,83.279l82.834,-65.333l-1.521,117.925l-145.641,91.161Z" style="fill:#1c1b17;"/><path d="M162.98,1423.54l24.191,-434.505l80.775,-70.126c0,-0 33.41,192.351 33.548,210.824c2.814,-22.681 5.49,-42.869 8.041,-60.563c2.539,-17.684 4.792,-31.398 6.76,-41.121l27.119,-166.638l113.991,-101.65l-21.96,522.337l-70.928,41.188c0,-0 12.284,-222.388 14.309,-252.905c2.036,-30.515 -0.949,-59.477 -0.949,-59.477l-5.731,20.188l-46.918,293.155l-60.439,33.558l-18.369,-149.734c-3.374,-23.974 -6.188,-45.58 -8.441,-64.853c-2.254,-19.261 -4.186,-37.814 -5.8,-55.645c-0.354,27.703 -1.063,55.977 -2.127,84.801c-1.052,28.823 -7.412,218.041 -7.412,218.041l-59.66,33.125Z" style="fill:#1c1b17;"/><path d="M479.412,1070.18l90.829,-62.692l-1.693,47.147c-0.709,19.605 2.54,32.175 9.734,37.712c7.194,5.535 11.461,4.952 22.887,-0.927c14.423,-7.423 21.355,-21.526 27.166,-35.309c6.222,-14.755 7.824,-22.67 8.327,-36.613c0.434,-12.284 -4.507,-23.906 -12.113,-31.649c-7.607,-7.744 -45.718,-19.81 -59.42,-23.333c-31.18,-8.018 -58.118,-30.219 -63.516,-69.566c-2.425,-17.625 -1.018,-39.918 -0.149,-64.258c1.751,-48.669 13.394,-93.768 46.598,-138.193c21.962,-29.373 51.632,-64.327 86.872,-86.449c55.567,-34.862 58.3,-36.017 86.712,-27.027c28.401,8.99 41.829,43.212 40.056,92.59l-1.727,47.902l-103.217,41.977l-1.464,-19.868c0.664,-18.689 -5.262,-26.478 -11.953,-31.591c-3.831,-2.939 -13.496,-2.059 -21.938,5.696c-4.838,4.449 -2.928,1.27 -9.676,13.886c-6.737,12.593 -5.856,9.664 -9.368,20.794c-6.554,20.749 -12.604,53.816 21.618,63.389c1.739,0.458 2.859,0.789 3.351,0.984c2.722,0.629 6.303,1.498 10.764,2.585c53.208,12.97 63.732,4.735 94.855,38.511c6.691,8.464 11.609,19.091 14.766,31.877c3.168,12.788 4.449,27.578 3.843,44.346c-1.807,50.075 -15.544,100.688 -42.046,151.656c-26.879,51.699 -35.469,72.836 -86.208,105.446c-57.132,36.716 -73.192,34.325 -103.263,22.738c-30.07,-11.586 -44.127,-44.31 -42.194,-98.171l1.567,-43.59Z" style="fill:#1c1b17;"/><path d="M400.25,1301.12c7.675,13.416 26.833,24.911 38.339,9.584c252.998,-136.088 500.882,-276.009 755.8,-412.086l0.012,514.65l264.15,-89.513c16.425,-0.721 39.769,-2.151 37.619,16.196c-5.753,21.081 -301.769,265.475 -301.769,265.475l-0,502.194l-1194.4,-0.023l0,-559.052l78.235,-46.187c0,-0 -6.348,-14.503 -8.35,-24.34c-6.359,-31.122 -3.602,-56.834 17.764,-79.481c15.899,-16.826 69.188,-42.996 91.63,-33.651c-0,-0 13.337,5.227 29.921,-4.678c34.589,-41.143 124.847,-80.501 191.05,-59.088Z" style="fill:#1c1b17;"/><path d="M1147.75,988.707c0,139.921 0.493,296.392 -3.351,440.144c0,-0 -199.947,62.154 -293.578,89.787c-15.339,5.754 -13.566,22.064 -5.891,33.571c13.417,13.417 28.377,33.422 38.329,44.082l-101.582,68.994c-44.082,-32.587 -88.164,-80.5 -124.582,-122.661c21.08,-30.665 34.497,-72.837 72.825,-88.175c24.924,-17.248 47.925,-40.239 53.667,-70.915c1.923,-19.159 -5.742,-42.16 -26.833,-49.824c-44.082,-11.506 -76.658,22.99 -113.076,42.16c-26.833,23.002 -53.667,51.757 -65.174,84.332l-3.832,1.921c-42.16,-28.754 -72.825,-74.747 -114.997,-107.333l0,-5.753c224.253,-126.492 456.171,-235.748 682.333,-360.33l5.742,-0Z" style="fill:#0055a0;"/><path d="M440.5,1368.21l141.842,141.831c-3.843,7.663 -3.843,19.169 -13.417,21.08c-55.588,-40.25 -105.424,-93.917 -159.09,-136.078c-21.08,-17.248 -42.16,-42.172 -72.826,-38.34c-30.666,0 -61.343,17.26 -90.086,15.338c28.743,-42.171 80.5,-55.588 130.336,-44.081c24.912,3.831 47.914,19.169 63.241,40.25Z" style="fill:#fefefe;"/><path d="M706.926,1381.62c-3.844,19.17 -24.924,26.833 -38.341,32.587c-7.663,1.911 -19.17,1.911 -15.327,-9.585c9.574,-11.507 22.991,-30.665 40.25,-30.665c3.832,1.91 13.418,-0 13.418,7.663Z" style="fill:#fefefe;"/><path d="M239.26,1423.78c-26.834,-3.832 -63.253,-11.495 -90.086,5.753c-15.338,5.753 -32.587,19.17 -34.497,34.497l-1.922,13.417c-11.494,5.753 -13.417,-9.586 -19.169,-17.249c-1.911,-19.159 11.506,-38.329 28.755,-45.992c32.586,-15.338 91.995,-21.092 116.919,9.574Z" style="fill:#fefefe;"/><path d="M363.842,1412.29c51.746,40.25 99.659,86.253 145.663,130.335l0,5.742c-114.997,122.671 -207.004,256.839 -314.327,381.421c-21.092,17.248 -38.341,51.745 -69.006,40.25c-24.911,-11.506 -19.022,-37.15 -15.19,-58.23c1.922,-5.754 12.537,-17.626 20.2,-13.794c13.417,-0 23.883,-1.545 37.013,-0c-3.832,-53.667 -7.526,-123.473 -34.359,-167.567c-34.794,23.746 -63.836,58.986 -88.382,88.473l-0.011,-257.605c-0,-0 39.781,-23.025 58.94,-32.61c32.587,17.249 77.378,21.583 115.707,10.088c26.833,-11.506 55.576,-34.508 63.252,-65.173l3.831,-34.497c23.003,-15.338 46.004,-42.172 76.669,-26.833Z" style="fill:#0055a0;"/><path d="M1117.08,1561.78c-55.578,-15.326 -122.661,-19.158 -185.914,-22.99c0,0 269.949,-83.462 394.531,-127.544c-63.241,47.913 -137.702,104.542 -208.617,150.534Z" style="fill:#fefefe;"/><path d="M649.415,1479.37c-21.08,28.743 -5.742,74.747 -45.992,91.996l-40.25,7.675c-105.413,122.66 -212.747,243.41 -329.667,356.486c93.917,-126.492 197.42,-249.164 302.832,-371.825c21.081,-3.832 53.668,-0 61.332,-28.755c21.08,-21.08 -7.664,-82.41 46.003,-68.994l5.742,13.417Z" style="fill:#fefefe;"/><path d="M1094.88,1589.88c2.471,43.257 -12.353,108.557 -32.575,138.547l-21.366,-21.904c-4.45,-9.63 8.921,-59.923 5.227,-69.977c-15.327,-36.418 -52.26,-46.278 -86.758,-50.121c-11.117,2.23 -17.042,-0 -27.405,3.706l-20.005,-16.837c32.587,-7.663 65.151,-0.938 99.648,0.972l83.234,15.614Z" style="fill:#fefefe;"/><path d="M755.628,1674.13c-7.606,4.918 -14.206,14.16 -14.206,14.16c-32.587,-34.496 -103.514,-102.461 -103.514,-102.461c1.819,-8.487 8.533,-12.056 14.79,-12.959l102.93,101.26Z" style="fill:#fefefe;"/><path d="M992.497,1623.12c-208.915,143.741 -419.74,289.414 -651.657,383.32c-38.339,9.585 -76.668,24.924 -118.84,19.17l-1.91,-3.832c28.743,-17.248 65.162,-21.08 97.749,-34.497c220.41,-86.253 404.413,-260.67 613.328,-375.667c21.08,0 46.004,-3.832 61.33,11.506Z" style="fill:#fefefe;"/><path d="M703.082,1713.2l-0,7.675c-141.831,97.748 -279.831,205.082 -440.832,260.659l-0,-7.663c113.088,-116.919 226.175,-235.748 333.509,-350.745l13.417,3.832l93.906,86.242Z" style="fill:#0055a0;"/><path d="M1143.91,1734.29l-1.911,254.905c-15.338,1.922 -34.496,-5.741 -49.834,-11.494c-63.253,-67.084 -134.168,-130.336 -195.499,-197.419c34.497,-26.833 64.041,-38.992 104.292,-58.163c36.418,3.833 47.914,46.004 74.747,63.252l7.675,-3.831c13.417,-28.755 29.865,-72.174 58.619,-91.332l1.911,44.082Z" style="fill:#0055a0;"/><path d="M1017.13,1933.25c-13.417,-13.417 -141.545,-116.553 -147.298,-139.554c21.08,9.584 130.05,126.137 147.298,139.554Z" style="fill:#fefefe;"/><path d="M118.657,1785.7c9.586,19.159 13.486,58.676 11.736,80.946l-64.865,0c10.695,-32.094 26.033,-67.22 53.129,-80.946Z" style="fill:#fefefe;"/><path d="M1053.84,2027.54l7.663,26.833l-9.437,2.551l-646.36,0c39.529,-16.769 88.461,-38.969 128.711,-63.881c97.749,-47.925 189.756,-116.919 285.584,-168.676c78.579,59.421 155.248,139.921 233.839,203.173Z" style="fill:#0055a0;"/><path d="M57.19,1897.2c-11.496,53.667 -8.911,113.74 17.923,159.731l-29.67,-0l-0,-158.907l11.747,-0.824Z" style="fill:#0055a0;"/><path d="M1126.66,2006.44c-19.158,3.844 -44.082,1.921 -53.666,24.924c-5.742,-1.923 -3.833,-11.507 -0,-15.339c13.416,-15.327 38.34,-19.158 53.666,-9.585Z" style="fill:#fefefe;"/><path d="M942.285,764.42l65.712,-40.021l-14.881,-182.458c-1.064,-12.101 -2.037,-25.209 -2.917,-39.323c-0.892,-14.115 -2.082,-35.504 -3.592,-64.145c-2.013,18.061 -4.3,36.911 -6.863,56.561c-2.55,19.639 -5.239,39.885 -8.064,60.724l-29.395,208.662Zm-175.276,332.89l132.051,-707.197l171.056,-138.856l124.285,602.174l-164.215,94.191l-12.925,-115.409l-94.512,57.567l-25.084,129.73l-130.656,77.8Z" style="fill:#1c1b17;"/></g></g></svg>