<?xml version="1.0" encoding="UTF-8" standalone="no"?><!DOCTYPE svg PUBLIC "-//W3C//DTD SVG 1.1//EN" "http://www.w3.org/Graphics/SVG/1.1/DTD/svg11.dtd"><svg width="100%" height="100%" viewBox="0 0 6513 8201" version="1.1" xmlns="http://www.w3.org/2000/svg" xmlns:xlink="http://www.w3.org/1999/xlink" xml:space="preserve" xmlns:serif="http://www.serif.com/" style="fill-rule:evenodd;clip-rule:evenodd;stroke-linejoin:round;stroke-miterlimit:2;"><path d="M6001.93,624.323c-176.211,29.674 -314.336,208.06 -301.628,389.583l14.636,207.93c27.109,386.068 -258.23,751.901 -636.081,815.534l-203.32,34.166c-176.146,29.675 -314.271,208.112 -301.537,389.649l14.57,208.203c27.11,386.042 -258.294,751.849 -636.184,815.43l-203.282,34.166c-176.159,29.688 -314.232,208.125 -301.51,389.662l14.57,208.138c27.044,386.081 -258.346,751.862 -636.211,815.417l-203.216,34.153c-176.107,29.675 -314.206,208.125 -301.484,389.636l14.544,208.112c27.174,385.989 -258.216,751.809 -636.159,815.39l-203.19,34.128c-176.094,29.674 -314.206,208.112 -301.471,389.635l14.57,208.125c12.461,177.136 -40.925,350.052 -138.88,491.446c480.755,402.317 1176.78,697.552 2185.6,697.552c1901.15,-0 2692.89,-1047.77 3022.28,-1887.05c50.534,-128.685 90.248,-252.304 121.315,-366.627c104.428,-383.894 112.67,-661.628 112.67,-661.628l-0,-4824.92c-90.391,65.209 -194.844,111.042 -307.526,130l-203.073,34.167Z" style="fill:#00a94f;fill-rule:nonzero;"/><path d="M808.216,7039.52l-14.583,-208.112c-27.057,-386.041 258.359,-751.836 636.185,-815.429l203.164,-34.141c176.12,-29.688 314.219,-208.151 301.523,-389.688l-14.557,-208.099c-27.149,-385.963 258.255,-751.77 636.159,-815.338l203.164,-34.167c176.133,-29.674 314.271,-208.151 301.562,-389.739l-14.57,-208.034c-27.122,-386.003 258.255,-751.823 636.146,-815.456l203.268,-34.193c176.237,-29.674 314.31,-208.073 301.537,-389.596l-14.545,-208.268c-27.096,-385.99 258.308,-751.81 636.185,-815.378l203.281,-34.14c176.159,-29.688 314.258,-208.138 301.485,-389.662l-14.61,-208.021c-27.096,-386.067 258.295,-751.849 636.12,-815.429l203.177,-34.141c109.427,-18.424 204.128,-94.219 257.175,-192.487l-6395.48,0l0,5285.08c0,0 8.242,277.734 112.604,661.628c31.042,114.297 70.768,237.89 121.237,366.523c114.401,291.432 284.766,607.982 537.748,897.11c1.132,1.328 2.291,2.604 3.437,3.932c24.987,-54.349 37.435,-114.375 33.19,-174.753Z" style="fill:#0077be;"/><path d="M2977.16,1521.84l-728.998,-0l0,-728.92l-364.375,364.375l-364.492,-364.375l-0,728.92l-728.945,-0l364.44,364.414l-364.44,364.466l728.945,-0l-0,728.945l364.492,-364.44l364.375,364.44l0,-728.945l728.998,-0l-364.558,-364.466l364.558,-364.414Z" style="fill:#fff;"/><path d="M5826.09,5600.58l-87.904,-101.511l-235.195,0l237.838,-237.76l0.235,0.104l-9.649,-133.919l-134.036,-9.701l-237.761,237.748l0,-234.922l-101.575,-88.151l-101.719,88.151l0.443,-0l-0,437.721l-143.386,143.399l-179.283,179.336l-0,-498.972l309.687,-309.713l0.234,0.208l-9.661,-134.088l-134.102,-9.493l-166.158,166.185l-0,-336.276l0.403,0l-101.601,-88.125l-101.667,88.125l-0,336.276l-166.133,-166.185l-134.062,9.493l-9.662,134.088l0.378,-0.208l309.479,309.713l-0,498.972l-179.232,-179.336l-143.45,-143.399l-0,-437.721l0.416,-0l-101.51,-88.151l-101.523,88.151l-0,234.922l-237.93,-237.748l-134.024,9.701l-9.791,133.919l0.247,-0.104l237.982,237.76l-235.026,0l-88.086,101.511l88.086,101.653l-0,-0.494l437.877,-0l465.964,466.08l-0,324.844l202.865,0l-0,-324.844l466.145,-466.08l437.943,-0l0,0.494l87.904,-101.653Z" style="fill:#fff;fill-rule:nonzero;"/><path d="M6512.52,0.003l-117.044,-0c-53.047,98.268 -147.747,174.062 -257.174,192.487l-203.177,34.127c-377.813,63.594 -663.204,429.362 -636.12,815.443l14.609,208.021c12.774,181.51 -125.325,359.961 -301.471,389.661l-203.294,34.141c-377.878,63.568 -663.282,429.375 -636.185,815.364l14.544,208.282c12.773,181.51 -125.3,359.922 -301.537,389.596l-203.268,34.193c-377.89,63.633 -663.268,429.453 -636.146,815.455l14.571,208.021c12.708,181.602 -125.43,360.078 -301.563,389.753l-203.164,34.167c-377.903,63.567 -663.294,429.375 -636.159,815.338l14.558,208.099c12.695,181.537 -125.404,360 -301.524,389.675l-203.164,34.14c-377.825,63.607 -663.242,429.401 -636.185,815.43l14.584,208.125c4.244,60.364 -8.204,120.403 -33.191,174.752c82.11,93.412 173.073,183.868 273.464,269.74c7.344,6.289 14.753,12.578 22.174,18.815c97.956,-141.406 151.342,-314.31 138.881,-491.445l-14.571,-208.125c-12.734,-181.524 125.378,-359.961 301.485,-389.649l203.177,-34.127c377.943,-63.568 663.333,-429.388 636.172,-815.391l-14.558,-208.099c-12.721,-181.523 125.378,-359.974 301.485,-389.635l203.216,-34.154c377.878,-63.555 663.268,-429.349 636.211,-815.417l-14.57,-208.138c-12.722,-181.536 125.351,-359.974 301.523,-389.674l203.268,-34.167c377.891,-63.58 663.294,-429.375 636.185,-815.416l-14.57,-208.203c-12.722,-181.537 125.39,-359.974 301.536,-389.649l203.334,-34.167c377.838,-63.632 663.177,-429.479 636.067,-815.533l-14.635,-207.93c-12.695,-181.524 125.417,-359.909 301.627,-389.583l203.073,-34.167c112.683,-18.958 217.149,-64.792 307.526,-130l0,-460.156Z" style="fill:#fff;fill-rule:nonzero;"/></svg>