<?xml version="1.0" encoding="UTF-8" standalone="no"?><!DOCTYPE svg PUBLIC "-//W3C//DTD SVG 1.1//EN" "http://www.w3.org/Graphics/SVG/1.1/DTD/svg11.dtd"><svg width="100%" height="100%" viewBox="0 0 4000 4307" version="1.1" xmlns="http://www.w3.org/2000/svg" xmlns:xlink="http://www.w3.org/1999/xlink" xml:space="preserve" xmlns:serif="http://www.serif.com/" style="fill-rule:evenodd;clip-rule:evenodd;stroke-linejoin:round;stroke-miterlimit:2;"><path d="M154.538,166.394l-0,3974.09l3690.92,0l0,-3974.09l-3690.92,-0Zm3621.7,70.56l0,3825.04l-3552.49,-0l0,-3825.04l3552.49,-0Z" style="fill:#231f20;fill-rule:nonzero;"/><path d="M1999.99,818.516c192.761,0 349.024,156.263 349.024,349.01c-0,192.748 -156.263,348.998 -349.024,348.998c-192.747,-0 -349.01,-156.25 -349.01,-348.998c0,-192.747 156.263,-349.01 349.01,-349.01Z" style="fill:#231f20;fill-rule:nonzero;"/><path d="M1999.99,2478.53c117.761,0 226.81,-37.227 316.029,-100.547l1155.47,-851.042c70.612,-52.161 116.419,-135.989 116.419,-230.52c0,-41.797 -8.945,-81.485 -25.052,-117.292l-173.281,-370l-801.693,0l129.414,277.565c2.565,5.443 3.997,11.524 3.997,17.956c0,14.258 -7.057,26.888 -17.903,34.531l-679.076,500.651c-6.862,4.844 -15.273,7.708 -24.323,7.708c-9.049,0 -17.435,-2.864 -24.322,-7.708l-679.063,-500.651c-10.833,-7.643 -17.904,-20.273 -17.904,-34.531c0,-6.432 1.433,-12.513 3.998,-17.956l129.414,-277.565l-801.68,0l-173.294,370c-16.094,35.807 -25.052,75.495 -25.052,117.292c-0,94.531 45.807,178.359 116.432,230.52l1155.46,851.042c89.232,63.32 198.281,100.547 316.015,100.547Z" style="fill:#231f20;fill-rule:nonzero;"/><path d="M2993.74,3583.05l-2021.99,0l0,-209.257l-59.791,209.257l-320.691,0l-137.708,-482.851l-48.906,-0l-0,-268.151l3110.89,-0l0,304.388c0,-0 38.972,-0 39.245,0.104c11.992,155.846 -12.253,307.995 -141.432,399.023c-85.664,63.607 -220.508,82.162 -319.701,38.49c-36.211,-13.138 -67.305,-39.297 -100.599,-60.378c-0.716,2.201 0.69,69.375 0.69,69.375Zm-1956.77,-269.062l-0,-213.789l-59.792,213.789l59.792,-0Zm320.69,-0l34.427,-0l-0,-213.789l-34.427,-0l-0,213.789Zm699.362,-0l-0,-213.789l-55.248,-0l-75.195,73.372l114.154,140.417l16.289,-0Zm322.513,-0l34.414,-0l-0,-213.789l-34.414,-0l-0,213.789Z" style="fill:#ed1c24;fill-rule:nonzero;"/><path d="M3462.4,3196.06c7.748,105.104 -20.521,206.953 -107.604,267.643c-66.068,47.696 -168.997,53.998 -241.367,17.605c-111.51,-48.79 -146.771,-168.438 -144.362,-283.672c8.203,-112.318 54.857,-236.862 173.073,-275.756c63.815,-22.33 133.346,-2.63 184.01,33.724l14.558,-27.526l88.32,0l-0,208.36c-0,-0 -96.471,-0 -96.745,0.104c-5.703,-41.341 -15.026,-86.732 -56.302,-107.839c-22.448,-12.369 -58.672,-11.002 -79.714,4.18c-70.442,59.987 -51.093,165.846 -46.927,254.271c7.878,44.245 23.711,101.51 75.144,111.771c15.208,1.497 32.604,0.065 45.677,-8.594c30.481,-22.409 43.58,-60.052 44.388,-96.289l-67.149,0.013l0,-97.839c0,0 216.237,-0.325 215,-0.156Zm-1376.38,-267.982l268.138,0l0,109.61l-50.716,-0l-0,336.107l50.716,-0l0,111.406l-268.138,-0l0,-111.406l48.906,-0l0,-336.107l-48.906,-0l0,-109.61Zm-1025.5,0l269.961,0l0,109.61l-47.109,-0l-0,336.107l52.552,-0l-0,111.406l-271.784,-0l0,-111.406l47.109,-0l0,-336.107l-50.729,-0l0,-109.61Zm-558.034,0l246.407,0l-0,109.61l-45.3,-0l72.474,296.224l67.031,-296.224l-41.666,-0l-0,-109.61l190.247,0l0,109.61l-36.25,-0l-125.013,447.513l-164.87,-0l-130.455,-447.513l-32.605,-0l0,-109.61Zm1940.47,0l202.917,0l164.883,313.438l-0,-203.828l-49.831,-0l-0,-109.61l200.651,0l-0,109.61l-56.628,-0l0,447.513l-141.328,-0l-172.109,-330.651l-0,219.245l48.932,-0l0,111.406l-199.323,-0l0,-111.406l48.932,-0l0,-336.107l-47.096,-0l0,-109.61Zm-1029.13,0l262.708,0l-0,109.61l-43.477,-0l0,149.479l9.961,-0l151.289,-149.479l-70.664,-0l0,-109.61l262.722,0l-0,109.61l-42.579,-0l-139.518,135.885l161.25,200.222l35.326,-0l-0,111.406l-273.568,-0l0,-111.406l41.667,-0l-125.925,-176.667l-9.961,-0l0,176.667l43.477,-0l-0,111.406l-259.089,-0l0,-111.406l48.92,-0l-0,-336.107l-52.539,-0l-0,-109.61Z" style="fill:#fff;fill-rule:nonzero;"/><path d="M462.572,3706.74l24.726,0l0,165.013l98.372,0l0,20.808l-123.098,-0l-0,-185.821Z" style="fill:#403f41;fill-rule:nonzero;"/><rect x="607.012" y="3706.74" width="24.714" height="185.821" style="fill:#403f41;fill-rule:nonzero;"/><path d="M672.077,3706.74l122.057,0l0,20.833l-97.344,0l0,59.076l85.365,0l-0,20.807l-85.365,0l0,85.105l-24.713,-0l-0,-185.821Z" style="fill:#403f41;fill-rule:nonzero;"/><path d="M820.15,3706.74l128.307,0l-0,20.833l-103.581,0l0,59.076l96.55,0l-0,20.807l-96.55,0l0,64.297l104.362,0l0,20.808l-129.088,-0l-0,-185.821Z" style="fill:#403f41;fill-rule:nonzero;"/><rect x="970.579" y="3809.81" width="75.208" height="20.833" style="fill:#403f41;fill-rule:nonzero;"/><path d="M1185.28,3761.15c-2.865,-26.549 -20.56,-37.995 -46.055,-37.995c-20.833,0 -41.653,7.54 -41.653,31.745c-0,22.904 29.674,26.289 59.596,33.047c29.674,6.771 59.349,17.187 59.349,53.607c-0,39.57 -38.776,55.443 -72.617,55.443c-41.641,-0 -76.771,-20.3 -76.771,-65.586l23.424,-0c0,31.237 26.016,44.778 54.128,44.778c22.383,0 47.109,-7.031 47.109,-33.841c0,-25.508 -29.674,-29.935 -59.336,-36.445c-29.674,-6.497 -59.609,-15.091 -59.609,-49.18c-0,-37.747 33.581,-54.401 67.422,-54.401c37.995,-0 66.875,17.969 68.437,58.828l-23.424,0Z" style="fill:#403f41;fill-rule:nonzero;"/><path d="M1308.64,3729.14l0.521,-0l30.977,86.654l-62.982,-0l31.484,-86.654Zm-85.625,163.425l25.508,-0l20.82,-55.938l78.594,-0l20.3,55.938l27.33,-0l-72.617,-185.821l-27.318,0l-72.617,185.821Z" style="fill:#403f41;fill-rule:nonzero;"/><path d="M1485.62,3892.57l-28.112,-0l-65.586,-185.821l26.81,0l53.099,161.107l0.508,0l53.62,-161.107l25.755,0l-66.094,185.821Z" style="fill:#403f41;fill-rule:nonzero;"/><rect x="1571.23" y="3706.74" width="24.726" height="185.821" style="fill:#403f41;fill-rule:nonzero;"/><path d="M1636.04,3706.74l26.289,0l97.852,150.69l0.52,0l0,-150.69l23.425,0l0,185.821l-27.07,-0l-97.071,-149.128l-0.52,0l-0,149.128l-23.425,-0l0,-185.821Z" style="fill:#403f41;fill-rule:nonzero;"/><path d="M1961.87,3869.4c-14.31,19.519 -37.734,27.592 -59.596,27.592c-55.43,-0 -88.49,-45.274 -88.49,-93.685c0,-54.128 29.675,-100.99 88.49,-100.99c40.599,-0 72.865,18.229 79.896,61.68l-24.727,-0c-4.935,-28.099 -27.578,-40.847 -55.169,-40.847c-45.026,0 -63.763,39.037 -63.763,78.841c-0,38.79 22.383,74.193 63.763,74.193c38.255,0 61.159,-26.823 59.596,-60.651l-59.336,0l0,-20.82l81.459,-0l-0,97.852l-15.612,-0l-6.511,-23.165Z" style="fill:#403f41;fill-rule:nonzero;"/><path d="M2090.18,3706.74l128.294,0l-0,20.833l-103.568,0l0,59.076l96.55,0l-0,20.807l-96.55,0l0,64.297l104.349,0l0,20.808l-129.075,-0l-0,-185.821Z" style="fill:#403f41;fill-rule:nonzero;"/><path d="M2331.7,3854.57l20.56,16.393c-7.812,3.385 -16.172,5.221 -25.768,5.221c-45.3,0 -64.284,-39.049 -64.284,-76.523c-0,-37.474 18.984,-76.511 64.284,-76.511c45.26,0 64.284,39.037 64.284,76.511c-0,22.37 -6.784,45.273 -21.367,59.596l-24.701,-19.779l-13.008,15.092Zm80.13,38.515l-24.453,-19.518c18.737,-18.216 28.099,-45.547 28.099,-73.906c0,-50.482 -29.909,-97.344 -88.984,-97.344c-59.089,-0 -89.024,46.862 -89.024,97.344c0,50.495 29.935,97.331 89.024,97.331c17.409,-0 32.278,-3.907 44.492,-11.185l28.372,22.903l12.474,-15.625Z" style="fill:#403f41;fill-rule:nonzero;"/><path d="M2592.72,3825.42c-0,46.862 -26.81,71.576 -73.138,71.576c-47.865,-0 -76.237,-22.123 -76.237,-71.576l-0,-118.672l24.726,0l0,118.672c0,32.8 18.737,50.768 51.511,50.768c31.25,0 48.411,-17.968 48.411,-50.768l0,-118.672l24.727,0l-0,118.672Z" style="fill:#403f41;fill-rule:nonzero;"/><rect x="2632.03" y="3706.74" width="24.701" height="185.821" style="fill:#403f41;fill-rule:nonzero;"/><path d="M2721.79,3727.58l48.425,0c27.838,0 40.599,11.967 40.599,34.089c-0,22.123 -12.761,34.349 -40.599,34.088l-48.425,0l0,-68.177Zm-24.713,164.988l24.713,-0l0,-75.977l56.732,-0c36.953,0.247 57.005,-20.573 57.005,-54.922c0,-34.362 -20.052,-54.922 -57.005,-54.922l-81.445,0l-0,185.821Z" style="fill:#403f41;fill-rule:nonzero;"/><path d="M2864.94,3706.74l33.815,0l58.555,156.159l58.828,-156.159l33.854,0l0,185.821l-23.424,-0l0,-154.597l-0.534,0l-58.047,154.597l-21.067,-0l-58.034,-154.597l-0.508,0l-0,154.597l-23.438,-0l0,-185.821Z" style="fill:#403f41;fill-rule:nonzero;"/><path d="M3089.77,3706.74l128.32,0l0,20.833l-103.567,0l-0,59.076l96.549,0l0,20.807l-96.549,0l-0,64.297l104.336,0l-0,20.808l-129.089,-0l-0,-185.821Z" style="fill:#403f41;fill-rule:nonzero;"/><path d="M3247.23,3706.74l26.302,0l97.852,150.69l0.507,0l0,-150.69l23.438,0l0,185.821l-27.07,-0l-97.071,-149.128l-0.534,0l0,149.128l-23.424,-0l-0,-185.821Z" style="fill:#403f41;fill-rule:nonzero;"/><path d="M3476.27,3727.58l-61.953,0l0,-20.833l148.607,0l0,20.833l-61.953,0l0,164.988l-24.701,-0l0,-164.988Z" style="fill:#403f41;fill-rule:nonzero;"/><path d="M3508.56,3592.53l-0,-86.003l-31.419,-0l-0,-10.56l75.26,-0l0,10.56l-31.419,-0l-0,86.003l-12.422,-0Zm60.925,-0l-0,-96.563l19.947,-0l31.172,78.307l30.209,-78.307l19.948,-0l-0,96.563l-12.435,-0l-0,-85.3l-0.456,-0l-34.245,85.3l-7.005,-0l-34.232,-85.3l-0.469,-0l0,85.3l-12.434,-0Z" style="fill:#403f41;fill-rule:nonzero;"/></svg>